<svg xmlns="http://www.w3.org/2000/svg" width="2606.687" height="1482.573" viewBox="0 0 2606.687 1482.573">
  <g id="apinamdubai" transform="translate(-5406.393 980.787)">
    <path id="Path_21" data-name="Path 21" d="M419.932-218.247S471.09-343.132,562.984-344.336,697.4-218.247,697.4-218.247L906.9,204.905s80.6,141.854-20.518,218.619-196.662,16.641-196.662,16.641-83.664-52.575-142.5-125.542S454.361,148.3,454.361,148.3,402.751-32.669,562.984-26.134,668.328,148.3,668.328,148.3,635.4,241.658,573.3,314.624s-153.369,134.34-153.369,134.34S321.9,499.756,239.378,414.572,211.4,220.5,211.4,220.5Z" transform="translate(6142.38 -596.442)" fill="none" stroke="#227c2d" stroke-width="80"/>
    <g id="Group_3" data-name="Group 3" transform="translate(5402 12.353)">
      <path id="Exclusion_3" data-name="Exclusion 3" d="M102.555,0h0A72.035,72.035,0,0,0,79.788,3.577a65.747,65.747,0,0,0-16.031,7.869,53.738,53.738,0,0,0-12.6,11.442.237.237,0,0,0,.006-.043c.171-1.647.934-10.073-.891-14.237C48.6,4.8,44.7,4.5,43.55,4.5c-.279,0-.447.016-.449.016H0v297.33H50.273V190.333c0,.007.01.014.024.025a92.386,92.386,0,0,0,16.052,10.073,101.613,101.613,0,0,0,17.982,7.02,87.459,87.459,0,0,0,22.736,3.354c.255,0,.513,0,.767,0a81.237,81.237,0,0,0,23.231-3.607,112.51,112.51,0,0,0,19.381-7.936,116.885,116.885,0,0,0,18.207-11.543,104.266,104.266,0,0,0,18.957-21.829,111.274,111.274,0,0,0,12.82-26.052,103.494,103.494,0,0,0,5.38-35.046,112.421,112.421,0,0,0-6.231-34.887,116.716,116.716,0,0,0-12.725-25.7c-9.06-13.774-18.11-21.242-18.2-21.315a88.27,88.27,0,0,0-16.534-10.6A113.028,113.028,0,0,0,107.066.125C105.556.042,104.039,0,102.555,0Zm-5.51,164.141a52.061,52.061,0,0,1-17.159-3.206,86.336,86.336,0,0,1-14.937-7.054A103.666,103.666,0,0,1,50.4,143.621V70.454a50.679,50.679,0,0,1,10.969-11.49,54.51,54.51,0,0,1,13.961-7.9,55.208,55.208,0,0,1,19.833-3.591c.62,0,1.253.01,1.879.029a64.816,64.816,0,0,1,20.719,4,62.079,62.079,0,0,1,14.652,7.844A52.781,52.781,0,0,1,144,70.454a40.476,40.476,0,0,1,5.6,9.488,62.821,62.821,0,0,1,5.019,27.412c-.346,10.633-1.521,18.119-3.7,23.559-2.021,5.053-4.8,8.193-8.014,11.829l-.776.878a62.5,62.5,0,0,1-16.367,13.211A58.525,58.525,0,0,1,97.046,164.141Z" transform="translate(328.901 187.088)" fill="#227c2d" stroke="#227c2d" stroke-width="1"/>
      <g id="Component_1_3" data-name="Component 1 – 3" transform="translate(562.107 88.072)">
        <path id="Path_3" data-name="Path 3" d="M525.364-111.681V88.032H576.98V-111.681Z" transform="translate(-514.059 210.94)" fill="#227c2d" stroke="#227c2d" stroke-width="1"/>
        <g id="Ellipse_1" data-name="Ellipse 1" transform="translate(-0.107 -0.425)" fill="#227c2d" stroke="#227c2d" stroke-width="1">
          <circle cx="37.5" cy="37.5" r="37.5" stroke="none"/>
          <circle cx="37.5" cy="37.5" r="37" fill="none"/>
        </g>
      </g>
      <path id="Path_12" data-name="Path 12" d="M699.213-109.577V91.212h52.736v-138.5s14.722-20.57,42.171-20.443c8.427.039,11.963-.073,20.847,5.038S829.66-47.288,829.66-47.288l2.829,10.961V91.212h51.756l-.312-125s3.465-61.138-51.444-75.751-84.709,17.307-84.709,17.307V-101.8s-.666-3.879-3.464-5.812-7.73-1.922-7.73-1.922Z" transform="translate(-22.578 301.51)" fill="#227c2d" stroke="#227c2d" stroke-width="1"/>
      <path id="Exclusion_5" data-name="Exclusion 5" d="M101.549,212.063a88.617,88.617,0,0,1-24.12-3.621,131.48,131.48,0,0,1-20.752-7.968,141.293,141.293,0,0,1-20.016-11.59c-.094-.074-9.459-7.6-18.616-21.523a110.811,110.811,0,0,1-12.634-26,107.185,107.185,0,0,1-5.4-35.364C.33,84.275,5.649,64.656,15.819,47.681A100.335,100.335,0,0,1,36.038,23.438c.238-.211.445-.394.622-.553A88.686,88.686,0,0,1,57.55,9.7a101.65,101.65,0,0,1,43.2-9.7h.055a86.348,86.348,0,0,1,23.166,3.111A80.881,80.881,0,0,1,140.91,9.954a62.374,62.374,0,0,1,13.928,9.95.113.113,0,0,1,0-.025c-.1-1.21-.455-7.409,1.837-10.651,2.492-3.527,8.191-3.581,8.248-3.581h40.922L206,205.492h-45.47a4.585,4.585,0,0,1-.741.053,4.691,4.691,0,0,1-4.712-3.452c-1.331-4.053-.048-12.884,0-13.2l-.012.016A56.359,56.359,0,0,1,142.6,199.9a70.672,70.672,0,0,1-15.786,7.878A76.922,76.922,0,0,1,104.49,212C103.524,212.042,102.535,212.063,101.549,212.063Zm9.244-164.571c-.333,0-.671,0-1.008.009-28.291.48-40.837,14.525-46.2,20.523q-.4.449-.751.836c-3.913,4.313-12.9,16.529-11.871,36.781A85.258,85.258,0,0,0,56.022,130.4c2.484,6.758,5.214,11.289,6.817,12.782.313.291.717.708,1.228,1.235A62.327,62.327,0,0,0,78.577,155.96a61.617,61.617,0,0,0,30.851,7.79h.357a60.53,60.53,0,0,0,19.527-3.275,59.259,59.259,0,0,0,14.033-7.063,51.216,51.216,0,0,0,11.309-10.229V68.86a51.352,51.352,0,0,0-11.045-10.685,56.051,56.051,0,0,0-13.716-7.345A55.37,55.37,0,0,0,110.793,47.492Z" transform="translate(905.904 184.565)" fill="#227c2d" stroke="#227c2d" stroke-width="1"/>
      <path id="Path_15" data-name="Path 15" d="M699.213-109.577V91.212h52.736v-138.5s14.722-20.57,42.171-20.443c8.427.039,11.963-.073,20.847,5.038S829.66-47.288,829.66-47.288l2.829,10.961V91.212h51.756l-.312-125s3.465-61.138-51.444-75.751-84.709,17.307-84.709,17.307V-101.8s-.666-3.879-3.464-5.812-7.73-1.922-7.73-1.922Z" transform="translate(461.818 298.92)" fill="#227c2d" stroke="#227c2d" stroke-width="1"/>
      <path id="Path_16" data-name="Path 16" d="M699.213-109.577V91.212h52.736v-138.5s14.722-20.57,42.171-20.443c8.427.039,11.963-.073,20.847,5.038S829.66-47.288,829.66-47.288l2.829,10.961V91.212h51.756l-.312-125s3.465-61.138-51.444-75.751-84.709,17.307-84.709,17.307l-8.763,10.4Z" transform="translate(593.927 298.92)" fill="#227c2d" stroke="#227c2d" stroke-width="1"/>
      <path id="Exclusion_6" data-name="Exclusion 6" d="M101.549,212.063a88.617,88.617,0,0,1-24.12-3.621,131.48,131.48,0,0,1-20.752-7.968,141.293,141.293,0,0,1-20.016-11.59c-.094-.074-9.459-7.6-18.616-21.523a110.811,110.811,0,0,1-12.634-26,107.185,107.185,0,0,1-5.4-35.364C.33,84.275,5.649,64.656,15.819,47.681A100.335,100.335,0,0,1,36.038,23.438c.238-.211.445-.394.622-.553A88.686,88.686,0,0,1,57.55,9.7a101.65,101.65,0,0,1,43.2-9.7h.055a86.348,86.348,0,0,1,23.166,3.111A80.881,80.881,0,0,1,140.91,9.954a62.374,62.374,0,0,1,13.928,9.95.113.113,0,0,1,0-.025c-.1-1.21-.455-7.409,1.837-10.651,2.492-3.527,8.191-3.581,8.248-3.581h40.922L206,205.492h-45.47a4.585,4.585,0,0,1-.741.053,4.691,4.691,0,0,1-4.712-3.452c-1.331-4.053-.048-12.884,0-13.2l-.012.016A56.359,56.359,0,0,1,142.6,199.9a70.672,70.672,0,0,1-15.786,7.878A76.922,76.922,0,0,1,104.49,212C103.524,212.042,102.535,212.063,101.549,212.063Zm9.244-164.571c-.333,0-.671,0-1.008.009-28.291.48-40.837,14.525-46.2,20.523q-.4.449-.751.836c-3.913,4.313-12.9,16.529-11.871,36.781A85.258,85.258,0,0,0,56.022,130.4c2.484,6.758,5.214,11.289,6.817,12.782.313.291.717.708,1.228,1.235A62.327,62.327,0,0,0,78.577,155.96a61.617,61.617,0,0,0,30.851,7.79h.357a60.53,60.53,0,0,0,19.527-3.275,59.259,59.259,0,0,0,14.033-7.063,51.216,51.216,0,0,0,11.309-10.229V68.86a51.352,51.352,0,0,0-11.045-10.685,56.051,56.051,0,0,0-13.716-7.345A55.37,55.37,0,0,0,110.793,47.492Z" transform="translate(2291.744 181.974)" fill="#227c2d" stroke="#227c2d" stroke-width="1"/>
      <g id="Component_1_4" data-name="Component 1 – 4" transform="translate(2535.959 88.072)">
        <path id="Path_3-2" data-name="Path 3" d="M525.364-111.681V88.032H576.98V-111.681Z" transform="translate(-514.059 210.94)" fill="#227c2d" stroke="#227c2d" stroke-width="1"/>
        <g id="Ellipse_1-2" data-name="Ellipse 1" transform="translate(-0.959 -0.425)" fill="#227c2d" stroke="#227c2d" stroke-width="1">
          <ellipse cx="38" cy="37.5" rx="38" ry="37.5" stroke="none"/>
          <ellipse cx="38" cy="37.5" rx="37.5" ry="37" fill="none"/>
        </g>
      </g>
      <path id="Exclusion_7" data-name="Exclusion 7" d="M-5120.347,262.812h-59.339L-5203.3,202.5h-117.6l-23.48,60.311H-5402l110.174-275.163h61.138l110.341,275.163Zm-141.93-217.727h0L-5303.5,152.724h81.8l-40.571-107.638Z" transform="translate(5407.132 129.912)" fill="#227c2d" stroke="#227c2d" stroke-width="1"/>
      <path id="Exclusion_8" data-name="Exclusion 8" d="M-5333.366,264.758c-34.224,0-68.294-.736-68.634-.743l.149-276.246.564,0c9.113-.035,33.122-.118,59.188-.118,18.394,0,34.276.041,47.2.121,1.251-.043,2.551-.064,3.864-.064a148.351,148.351,0,0,1,19.135,1.311,172.54,172.54,0,0,1,22.188,4.411,164.376,164.376,0,0,1,23.521,8.23,143.462,143.462,0,0,1,23.137,12.767A119.462,119.462,0,0,1-5164.8,56.445a128.024,128.024,0,0,1,11.674,30.692,165.344,165.344,0,0,1,4.416,38.1,171.359,171.359,0,0,1-2.588,31.044,135.918,135.918,0,0,1-7.45,26.251,119.616,119.616,0,0,1-11.435,21.827,117.481,117.481,0,0,1-14.543,17.773,129.572,129.572,0,0,1-27.052,20.642,156.512,156.512,0,0,1-29.162,12.964,175.883,175.883,0,0,1-27.861,6.724,152.821,152.821,0,0,1-23.148,1.922c-1,0-1.988-.013-2.943-.039C-5305.505,264.621-5318.449,264.758-5333.366,264.758Zm17.183-227.3a189.289,189.289,0,0,0-26.959,1.785V211.376c.028.006,3.681.753,9.737,1.5a203.963,203.963,0,0,0,24.419,1.5h.008a161.175,161.175,0,0,0,32.3-3.073,101.16,101.16,0,0,0,32.561-12.321c23.406-14.33,35.57-38.217,36.154-71a114.911,114.911,0,0,0-1.287-19.861,87.23,87.23,0,0,0-4.328-16.782,73.517,73.517,0,0,0-6.922-13.953,70.3,70.3,0,0,0-9.067-11.376c-10.507-10.7-24.838-18.521-42.593-23.257a153.833,153.833,0,0,0-23.068-4.2A196.54,196.54,0,0,0-5316.183,37.461Z" transform="translate(6918.73 126.69)" fill="#227c2d" stroke="#227c2d" stroke-width="1"/>
      <path id="Path_52" data-name="Path 52" d="M1807.72,185.267h55.3V297.218s-3.7,51.084,38.225,50.916,37.98-50.916,37.98-50.916V185.267h55.885V301.649s3.363,92.14-92.313,95-95.082-95-95.082-95Z" fill="#227c2d" stroke="#227c2d" stroke-width="1"/>
      <path id="Exclusion_9" data-name="Exclusion 9" d="M-5285.665,283.857h0c-1.507,0-3.019-.045-4.493-.134a66.9,66.9,0,0,1-24.616-5.084,82.452,82.452,0,0,1-18.661-10.786,94.813,94.813,0,0,1-11.836-10.709,62.533,62.533,0,0,1-4.139-4.854l-1.887,25.238h-50.06L-5402-12.352h55.774V97.5l.005-.01A91.243,91.243,0,0,1-5330.2,82.216a83.625,83.625,0,0,1,18.368-10.6,64.477,64.477,0,0,1,23.79-5.011c1.63-.111,3.3-.168,4.961-.168a80.846,80.846,0,0,1,16.694,1.788,90.45,90.45,0,0,1,16.8,5.338,95.826,95.826,0,0,1,16.147,8.846,98,98,0,0,1,14.747,12.313,100.971,100.971,0,0,1,22.01,34.145c5.6,14.26,8.287,30.095,8,47.065a123.558,123.558,0,0,1-9.544,46.739,103.623,103.623,0,0,1-23.085,33.78,100.627,100.627,0,0,1-14.867,11.93,98.08,98.08,0,0,1-16.148,8.571,92.265,92.265,0,0,1-16.729,5.172A82.493,82.493,0,0,1-5285.665,283.857Zm-10.591-167.735a45.627,45.627,0,0,0-20.046,4.636,49.842,49.842,0,0,0-8.748,5.44,54.133,54.133,0,0,0-7.622,7.2,59.931,59.931,0,0,0-11.037,18.754,66.083,66.083,0,0,0-4.047,22.965,66.082,66.082,0,0,0,4.047,22.965,59.932,59.932,0,0,0,11.037,18.754,54.159,54.159,0,0,0,7.622,7.2,49.834,49.834,0,0,0,8.748,5.44,45.625,45.625,0,0,0,20.046,4.637,45.623,45.623,0,0,0,20.046-4.637,49.874,49.874,0,0,0,8.748-5.44,54.159,54.159,0,0,0,7.622-7.2,59.932,59.932,0,0,0,11.037-18.754,66.083,66.083,0,0,0,4.047-22.965,66.083,66.083,0,0,0-4.047-22.965A59.932,59.932,0,0,0-5259.84,133.4a54.133,54.133,0,0,0-7.622-7.2,49.877,49.877,0,0,0-8.748-5.44A45.627,45.627,0,0,0-5296.256,116.122Z" transform="translate(7439.257 113.026)" fill="#227c2d" stroke="#227c2d" stroke-width="1"/>
    </g>
  </g>
</svg>
