<svg xmlns="http://www.w3.org/2000/svg" width="642.577" height="719.789" viewBox="0 0 642.577 719.789">
  <g id="strixvpn" transform="translate(-4461.072 -2926.276)">
    <g id="Group_77" data-name="Group 77" transform="translate(593 -2050)">
      <path id="Path_109" data-name="Path 109" d="M3921.716,5593.162s-1.332-22.314-22-22.341-23.74,21.538-22.335,26.649,2.078,7.878,13.868,22.476c7.185,6.913,10.583,10.337,19.136,17.986s12.4,16.226,12.57,21.035-3.649,25.952-24.25,25.062-21.325-22.567-21.325-22.567" fill="none" stroke="#080f3d" stroke-linecap="round" stroke-width="18"/>
      <path id="Path_110" data-name="Path 110" d="M3939.149,5570.821H3995.5" transform="translate(4.364)" fill="none" stroke="#080f3d" stroke-linecap="round" stroke-width="18"/>
      <path id="Path_111" data-name="Path 111" d="M3971.624,5575.055v108.9" transform="translate(0 0.104)" fill="none" stroke="#080f3d" stroke-linecap="round" stroke-width="18"/>
      <path id="Path_112" data-name="Path 112" d="M4031.146,5684.188s.823-112.707,1.12-113.017,50.255-8.677,51.851,26.374-45.1,30.054-45.1,30.054,29-1.4,34.882,10.7,8.916,45.6,8.916,45.6" fill="none" stroke="#080f3d" stroke-linecap="round" stroke-width="18"/>
      <path id="Path_113" data-name="Path 113" d="M4117.829,5566.964v114.106" transform="translate(0 3.117)" fill="none" stroke="#080f3d" stroke-linecap="round" stroke-width="18"/>
      <path id="Path_114" data-name="Path 114" d="M4206.382,5570.673l-56.668,113.294" fill="none" stroke="#080f3d" stroke-linecap="round" stroke-width="18"/>
      <path id="Path_115" data-name="Path 115" d="M4149.723,5570.871l56.653,113.117" fill="none" stroke="#080f3d" stroke-linecap="round" stroke-width="18"/>
      <path id="Path_116" data-name="Path 116" d="M4171.682,5598.908s3.084,4.813,6.311,4.813,6.6-4.813,6.6-4.813l-2.687,54.917s-.682-3.576-3.908-3.576-4.427,4.373-4.427,4.373Z" fill="#080f3d" stroke="#080f3d" stroke-width="1"/>
      <path id="Path_117" data-name="Path 117" d="M4271.706,5568.262s7.155,41.717,13.8,75.245c4.292,21.652,4.308,39.91,16.477,39.9,12.078-.009,12.608-17.976,17.188-39.9,6.917-33.106,14.026-75.245,14.026-75.245" fill="none" stroke="#080f3d" stroke-linecap="round" stroke-linejoin="round" stroke-width="18"/>
      <path id="Path_118" data-name="Path 118" d="M4362.52,5684.182V5571.7s51.461-9.843,52.921,29.4-43.381,34.831-43.381,34.831" fill="none" stroke="#080f3d" stroke-linecap="round" stroke-linejoin="round" stroke-width="18"/>
      <path id="Path_119" data-name="Path 119" d="M4448.669,5685.276V5571.147l52.98,112.721V5571.147" fill="none" stroke="#080f3d" stroke-linecap="round" stroke-linejoin="round" stroke-width="18"/>
      <path id="Path_120" data-name="Path 120" d="M4462.569,5618.973s-2.041-3.173-4.013-2.732-2.171,4.293-2.171,4.293v-12.2Z" fill="#080f3d" stroke="#080f3d" stroke-width="1"/>
      <path id="Path_121" data-name="Path 121" d="M4462.569,5609.9s-2.041,3.173-4.013,2.732-2.171-4.293-2.171-4.293v12.2Z" transform="translate(-2220.689 3123.725) rotate(-31)" fill="#080f3d" stroke="#080f3d" stroke-width="1"/>
    </g>
    <g id="Group_1" data-name="Group 1">
      <path id="Path_3" data-name="Path 3" d="M4695.578,2927.3s11.352-4.85,17.143,7.417-5.326,22-5.326,22-98.148,58.809-66.858,162.606S4765.454,3228.9,4765.454,3228.9v32.538s-22.584-2.115-44.063-10.25-41.855-22.288-41.855-22.288H4638.6s6.233,23.522,21.4,39.515,39.25,24.456,39.25,24.456.848-8.806-5.954-19.227-21.255-22.456-21.255-22.456,12.152-3.616,37.289,17.227,63.258,66.145,63.258,66.145l-39.125-14.07,20.125,74.52,28.084,16.736,29.02-16.736,19.989-74.52-38.547,14.07s34.919-43.419,59.705-64.262,39.438-19.11,39.438-19.11-14.772,12.68-21.22,23.1-4.574,18.582-4.574,18.582,23.94-8.223,39-24.215S4925.7,3228.9,4925.7,3228.9h-41.359a167.1,167.1,0,0,1-37.6,20.5c-21.4,8.135-47.979,12.043-47.979,12.043V3228.9s112.506-14.292,126.942-122.694-70.45-150.552-70.45-150.552-9.223-7.662-3.509-20.3,17.1-8.391,17.1-8.391,71.235,35.2,89.021,119.946-37.548,148.8-37.548,148.8h52.025s-3.174,8.5-11.514,31.37-15.266,43.027-29.768,60.153c-27.518,32.5-68.789,38.468-68.789,38.468l-23.585,89.389-57.018,33.121-56.295-33.121-23.631-89.389s-39.1-4.272-66.67-36.72c-14.527-17.1-24.651-38.823-32.165-61.617s-11.427-31.454-11.427-31.454h52.094s-51.918-53.765-38.145-142.874S4695.578,2927.3,4695.578,2927.3Z" fill="#080f3d"/>
      <path id="Path_2" data-name="Path 2" d="M4713.772,2992.036s16.833-9.068,23.336,2.676-2.682,22.95-2.682,22.95-31.07,18.622-33.68,56.914,18.515,60.3,18.515,60.3,22.054,29.815,62.987,29.251,62.775-29.251,62.775-29.251,23.6-27.286,17.956-63.56-34.785-56-34.785-56-7.168-11.168-1.537-20.608,18.367-5.34,18.367-5.34,48.5,25.709,50.924,88.183-41.118,92.025-41.118,92.025-24.331,26.931-72.582,26.694-75.986-28.3-75.986-28.3-38.336-31.149-38.146-87.857S4713.772,2992.036,4713.772,2992.036Z" fill="#080f3d"/>
      <path id="Path_1" data-name="Path 1" d="M4782.457,2936.748v130.1" transform="translate(0 15.918)" fill="none" stroke="#080f3d" stroke-linecap="round" stroke-width="33"/>
    </g>
  </g>
</svg>
