<svg xmlns="http://www.w3.org/2000/svg" width="1379.109" height="909.533" viewBox="0 0 1379.109 909.533">
  <g id="vallibel" transform="translate(2883.195 -16707.172)">
    <path id="Path_84" data-name="Path 84" d="M-2245.762,16708.1s-206.023-2.475-204.942,151.965,204.942,153.02,204.942,153.02-160.264,4-234.907-69.033c-21.536-21.072-39.34-47.988-39.9-83.986-.673-42.91,30.117-77.7,58.906-99.965C-2383.257,16699.447-2245.762,16708.1-2245.762,16708.1Z" fill="#ed1c24" stroke="#ed1c24" stroke-width="1"/>
    <path id="Path_85" data-name="Path 85" d="M-2520.584,16708.1s206.023-2.475,204.942,151.965-204.942,153.02-204.942,153.02,160.264,4,234.907-69.033c21.536-21.072,39.34-47.988,39.9-83.986.673-42.91-30.117-77.7-58.906-99.965C-2383.09,16699.447-2520.584,16708.1-2520.584,16708.1Z" transform="translate(352)" fill="#ed1c24" stroke="#ed1c24" stroke-width="1"/>
    <path id="Exclusion_2" data-name="Exclusion 2" d="M266.766,208.713H153.886L0,104.423,153.886,0H266.766l157.5,101.23-157.5,107.483ZM212.206,34.556l-101.8,67.234,101.8,69.834,101.531-69.834Z" transform="translate(-2419.274 16755.219)" stroke="#000" stroke-width="1"/>
    <path id="Path_88" data-name="Path 88" d="M-2882.3,17196.873h80.37l43.906,85.3,48.046-85.3h68.121l-79.718,129.514h-80.355Z" stroke="#000" stroke-width="1"/>
    <path id="Exclusion_3" data-name="Exclusion 3" d="M60.88,138.136h-.006a118.922,118.922,0,0,1-20.551-1.658,69.536,69.536,0,0,1-18.036-5.557C10.581,125.281,3.367,116.425.845,104.6A32.831,32.831,0,0,1,.757,90.228,28.7,28.7,0,0,1,6.513,78.662C25.783,54.85,83.224,51.294,115.749,51.294c13.61,0,23.022.633,23.116.639a14.807,14.807,0,0,0,.313-4,16.291,16.291,0,0,0-2.879-8.576,19.951,19.951,0,0,0-7.659-6.317A43.46,43.46,0,0,0,113.61,29.19c-2.3-.223-4.528-.337-6.633-.337a41.894,41.894,0,0,0-14.611,2.328A24.207,24.207,0,0,0,83.983,36.3a16.676,16.676,0,0,0-4.715,7.45H9.675v0a18.548,18.548,0,0,1,.346-5.789,26.462,26.462,0,0,1,2.024-6.073,32.048,32.048,0,0,1,4.675-7.151C22.74,17.7,32.188,12.045,44.8,7.941,61,2.672,82.375,0,108.341,0c.588,0,1.159,0,1.743,0,26.646.12,48.435,2.909,64.762,8.287,12.67,4.174,22.021,9.876,27.791,16.948a29.908,29.908,0,0,1,4.305,6.989,24.835,24.835,0,0,1,1.747,5.909,17.6,17.6,0,0,1,.11,5.616v78.791a24.956,24.956,0,0,0,1.494,7.1,9.229,9.229,0,0,0,3.487,4.027H141.8l0-.007a45.129,45.129,0,0,1-2.182-8.3,77.332,77.332,0,0,1-.747-10.082l0,.008a26.986,26.986,0,0,1-5.488,5.509,48.158,48.158,0,0,1-7.789,4.945,66.27,66.27,0,0,1-11.975,4.667,207.548,207.548,0,0,1-25.02,5.463A182.17,182.17,0,0,1,60.88,138.136Zm67.932-60.558c-11.773,0-33.093.624-43.6,4.8-4.607,1.831-7.6,4.531-8.89,8.026a13.124,13.124,0,0,0-.328,7.534,15.611,15.611,0,0,0,1.19,3.428,22.7,22.7,0,0,0,5.333,4.295,29.263,29.263,0,0,0,6.669,2.953,32.3,32.3,0,0,0,9.34,1.342,43.99,43.99,0,0,0,15.522-3.074,67.658,67.658,0,0,0,14.135-7.089,30.293,30.293,0,0,0,7.119-6.513c2.91-3.848,2.811-6.587,2.81-6.615l-1.327-8.983C136.767,77.683,133.655,77.578,128.812,77.578Z" transform="translate(-2641.8 17193.123)" stroke="#000" stroke-width="1"/>
    <path id="Path_91" data-name="Path 91" d="M-2396.409,17139.18l.164,187.893h75.486l-.149-187.893Z" stroke="#000" stroke-width="1"/>
    <path id="Path_92" data-name="Path 92" d="M-2396.409,17139.18l.164,187.893h75.486l-.149-187.893Z" transform="translate(107)" stroke="#000" stroke-width="1"/>
    <path id="Path_93" data-name="Path 93" d="M-2396.409,17139.18l.164,130.893h75.486l-.149-130.893Z" transform="translate(222 57)" stroke="#000" stroke-width="1"/>
    <path id="Path_94" data-name="Path 94" d="M-2396.409,17139.18l.164,39.119h75.486l-.149-39.119Z" transform="translate(222)" stroke="#000" stroke-width="1"/>
    <path id="Exclusion_4" data-name="Exclusion 4" d="M141.271,191.657h0c-.925,0-1.866-.007-2.8-.02a93.775,93.775,0,0,1-26.451-4.137,88.831,88.831,0,0,1-19.191-8.541,80.988,80.988,0,0,1-11.691-8.433,46.084,46.084,0,0,1-3.95-3.814.266.266,0,0,1,0,.05A121.686,121.686,0,0,1,76.4,178.97a43.068,43.068,0,0,1-2.052,8.734H0c.006-.022.862-3.184,1.668-7.525a76.737,76.737,0,0,0,1.459-15.127C2.849,155.01,2.007,1.549,2,0l75.19,1V75.539l.007-.008A92.551,92.551,0,0,1,94.663,64.35a106.889,106.889,0,0,1,19.924-7.692,97.4,97.4,0,0,1,25.677-3.5h.2a133.117,133.117,0,0,1,14.532.827,122.853,122.853,0,0,1,14.909,2.6,91.687,91.687,0,0,1,28.089,11.55A62.063,62.063,0,0,1,219,89.911a61.4,61.4,0,0,1,6.064,15.379,77.058,77.058,0,0,1,2.148,18.722A81.555,81.555,0,0,1,225.1,142.84a59.832,59.832,0,0,1-5.826,15.136,53.722,53.722,0,0,1-8.915,11.809,59.5,59.5,0,0,1-11.38,8.845,86.931,86.931,0,0,1-27.663,10.256A151.936,151.936,0,0,1,141.271,191.657ZM114.046,85.32A38.136,38.136,0,0,0,87.176,96.3a37.352,37.352,0,0,0-8.144,11.92,37.169,37.169,0,0,0,0,29.194,37.352,37.352,0,0,0,8.144,11.92,38.3,38.3,0,0,0,53.74,0,37.351,37.351,0,0,0,8.144-11.92,37.169,37.169,0,0,0,0-29.194,37.351,37.351,0,0,0-8.144-11.92,38.136,38.136,0,0,0-26.87-10.984Z" transform="translate(-2065.546 17139.18)" stroke="#000" stroke-width="1"/>
    <path id="Exclusion_5" data-name="Exclusion 5" d="M103.81,138.8h-.02a236.361,236.361,0,0,1-34.358-2.314,141.11,141.11,0,0,1-25.723-6.127c-12.94-4.524-23.211-10.859-30.527-18.83a49.217,49.217,0,0,1-7.648-10.949,44.273,44.273,0,0,1-3.581-9.656,33.072,33.072,0,0,1-1.041-9.5A58.178,58.178,0,0,1,.221,65.663,63.156,63.156,0,0,1,3.488,50.071,58.972,58.972,0,0,1,12.837,32.98C20.3,23.487,30.9,15.919,44.353,10.486A132.668,132.668,0,0,1,70.506,3.177,218.87,218.87,0,0,1,105.145.039C106.632.013,108.124,0,109.581,0a198.9,198.9,0,0,1,32.25,2.433A123.359,123.359,0,0,1,166.493,9.01a82.941,82.941,0,0,1,18.073,9.641,64.742,64.742,0,0,1,12.482,11.623,60.557,60.557,0,0,1,10.057,17.76,67.282,67.282,0,0,1,3.668,16.495,63.88,63.88,0,0,1-.472,16.888H77.185a22.41,22.41,0,0,0-.515,5.707,22.855,22.855,0,0,0,.855,5.607,19.715,19.715,0,0,0,2.927,6.086,22.268,22.268,0,0,0,8.609,6.985,44.4,44.4,0,0,0,16.084,3.795c1.94.136,3.838.205,5.643.205a47.362,47.362,0,0,0,17.161-2.781,24.272,24.272,0,0,0,9.235-6.119,18.628,18.628,0,0,0,3.751-6.119A12.361,12.361,0,0,0,141.643,92H210.3v.005a20.48,20.48,0,0,1-.783,6.219,30.553,30.553,0,0,1-2.582,6.521,37.735,37.735,0,0,1-5.469,7.673c-6.775,7.428-16.972,13.407-30.307,17.77-17.088,5.591-39.3,8.486-66.016,8.6C104.692,138.795,104.259,138.8,103.81,138.8Zm8.173-110.24c-.538,0-1.09.005-1.642.016-7.772.151-14.347,1.276-19.543,3.344A24.222,24.222,0,0,0,80.712,38.95,18.5,18.5,0,0,0,76.724,48.4a16.088,16.088,0,0,0,.031,4.489h67.2a18.41,18.41,0,0,0,.008-4.9,20.008,20.008,0,0,0-1.2-4.812,18.685,18.685,0,0,0-3.086-5.222,23.171,23.171,0,0,0-9.652-6.586C125.17,29.5,119.1,28.556,111.984,28.556Z" transform="translate(-1816.768 17192.975)" stroke="#000" stroke-width="1"/>
    <path id="Path_98" data-name="Path 98" d="M-1579.6,17140.037v186.889h75.011v-186.889Z" stroke="#000" stroke-width="1"/>
    <path id="Path_99" data-name="Path 99" d="M-2640.81,17436.689v176.6h25.177v-78.994h84.06V17511.1h-84.06v-52.994h98.13v-21.416Z" stroke="#000" stroke-width="1"/>
    <path id="Path_100" data-name="Path 100" d="M-2490.509,17485.684v128.627h23.656v-128.627Z" stroke="#000" stroke-width="1"/>
    <path id="Path_101" data-name="Path 101" d="M-2490.509,17485.684v25.871h23.656v-25.871Z" transform="translate(0 -49.221)" stroke="#000" stroke-width="1"/>
    <path id="Path_102" data-name="Path 102" d="M-2434.441,17485.684v127.506h22.311v-83.182s1.861-23.525,30.055-28.373,31.81,22.959,31.81,22.959v88.6h23.18v-83.182s4.015-35.322-27.986-45.8-57.059,17.432-57.059,17.432v-15.951Z" stroke="#000" stroke-width="1"/>
    <path id="Exclusion_6" data-name="Exclusion 6" d="M43.475,133.444a67.99,67.99,0,0,1-13.449-1.27A45.643,45.643,0,0,1,17.307,127.7c-8.775-4.762-14.393-12.347-16.7-22.543a48.461,48.461,0,0,1,.464-17.907A32.431,32.431,0,0,1,7.226,74.406a37.557,37.557,0,0,1,11.2-9.284,61.935,61.935,0,0,1,13.71-5.458c9.481-2.62,19.042-3.449,26.023-4.055,3.183-.276,5.7-.494,7.39-.812,12.358-2.319,26.189-6.2,26.327-6.24a30.991,30.991,0,0,0,.031-7.384A29.624,29.624,0,0,0,90.3,34.181a23.612,23.612,0,0,0-4.165-7.2C80.9,20.842,72.5,17.731,61.185,17.731h-.1A51.119,51.119,0,0,0,43.25,20.56a27.349,27.349,0,0,0-10.319,6.617,23.037,23.037,0,0,0-3.861,5.463A23.735,23.735,0,0,0,27.2,37.7a20.169,20.169,0,0,0-.644,5.175L3.192,38.57v-.008A30.043,30.043,0,0,1,4.53,32.544a41.322,41.322,0,0,1,7.186-13.258A46.632,46.632,0,0,1,29.506,6.028C38.6,2.029,49.757,0,62.658,0c.375,0,.74,0,1.119,0C75.141.107,84.8,1.693,92.484,4.721a36.439,36.439,0,0,1,15.182,10.559,29.078,29.078,0,0,1,4.712,8.184,30.989,30.989,0,0,1,1.781,7.5,28.164,28.164,0,0,1-.111,7.605V102.08c.005.1.537,10.105,2.585,16.928a28.284,28.284,0,0,0,5.7,10.662H97.477a23.018,23.018,0,0,1-2.907-6,53.888,53.888,0,0,1-1.7-8.5s-.005.006-.014.014a69.846,69.846,0,0,1-6.91,5.313,79.183,79.183,0,0,1-17.828,9.175A65.507,65.507,0,0,1,57.6,132.255,86.978,86.978,0,0,1,43.475,133.444ZM91.267,66.722c-.122.034-12.334,3.429-26.926,6.086-3.035.553-6.346.929-9.549,1.293-6.48.736-13.181,1.5-17.618,3.764a32.792,32.792,0,0,0-8.429,5.9A17.426,17.426,0,0,0,24.8,89.674a18.786,18.786,0,0,0-.7,9.706c.08.6.148,1.115.179,1.567.113,1.65,2.27,5.593,6.71,9.191a30.622,30.622,0,0,0,19.635,6.67,44.474,44.474,0,0,0,13.718-2.333A41.644,41.644,0,0,0,79.8,105.711a35.465,35.465,0,0,0,8.006-10.816,34.522,34.522,0,0,0,3.462-13.068Z" transform="translate(-2301.916 17482.762)" stroke="#000" stroke-width="1"/>
    <path id="Path_105" data-name="Path 105" d="M-2153.353,17484.982v128.6h22.3v-77.473s-1.418-30.893,30.981-34.6,31.84,29.229,31.84,29.229v82.844h21.828v-84.572s1.493-41.639-35.366-45.7-50.657,18.2-50.657,18.2v-16.527Z" stroke="#000" stroke-width="1"/>
    <path id="Path_106" data-name="Path 106" d="M-1929.27,17526.412l21.62-4.246s-9.881-47.547-62.423-38.834-49.729,59.416-49.729,59.416v21.639s3.71,50.828,57.323,51.424,57.491-46.924,57.491-46.924l-22.984-2.826s-1.479,32.2-34.507,32.578-34.149-39.969-34.149-39.969v-13.9s1.92-44.936,34.149-44.2S-1929.27,17526.412-1929.27,17526.412Z" stroke="#000" stroke-width="1"/>
    <path id="Exclusion_7" data-name="Exclusion 7" d="M59.827,133.773h-.01a63.668,63.668,0,0,1-18.589-2.617,51.27,51.27,0,0,1-14.291-6.9A57.374,57.374,0,0,1,9.007,103.338,79.058,79.058,0,0,1,4.245,92.164a89.679,89.679,0,0,1-2.707-9.747A72.021,72.021,0,0,1,.046,72.908a98.144,98.144,0,0,1,1.6-20.282,86.715,86.715,0,0,1,5.4-18.476A59.941,59.941,0,0,1,18.525,16.231a49.422,49.422,0,0,1,16.9-11.655A64.208,64.208,0,0,1,60.292,0c.793,0,1.571.011,2.379.033,18.865.516,33.6,6.656,43.807,18.25a58.178,58.178,0,0,1,10.47,17.646,81.053,81.053,0,0,1,4.5,17.765,89.566,89.566,0,0,1,.717,19.214H24.044a68.266,68.266,0,0,0,1.589,9.143,69.1,69.1,0,0,0,2.694,8.743,49.151,49.151,0,0,0,4.591,9.136,35.016,35.016,0,0,0,11.9,11.241,35.791,35.791,0,0,0,7.787,3.313,37.476,37.476,0,0,0,8.718,1.448c.668.032,1.339.048,2,.048A35.044,35.044,0,0,0,80.1,111.9a37.388,37.388,0,0,0,10.891-8.985,44.71,44.71,0,0,0,7.654-13.069L122.167,93.3V93.3a31.507,31.507,0,0,1-1.456,6.158,44.1,44.1,0,0,1-7.5,13.649,49.689,49.689,0,0,1-18.231,13.857c-9.276,4.252-20.6,6.537-33.657,6.789C60.816,133.768,60.326,133.773,59.827,133.773Zm3.734-115.99c-.556,0-1.126.01-1.694.03-8.173.285-15.207,2.412-20.907,6.323a34.673,34.673,0,0,0-11.06,12.7,46.736,46.736,0,0,0-4.341,12.461,38.948,38.948,0,0,0-.752,5.622h73.1a43.383,43.383,0,0,0-.566-5.8,49.172,49.172,0,0,0-3.805-12.764A32.125,32.125,0,0,0,83.33,23.585C78,19.735,71.348,17.783,63.561,17.783Z" transform="translate(-1895.506 17482.102)" stroke="#000" stroke-width="1"/>
  </g>
</svg>
