<svg xmlns="http://www.w3.org/2000/svg" width="2362.07" height="350.258" viewBox="0 0 2362.07 350.258">
  <g id="appdevlop" transform="translate(-6344.137 -14776.251)">
    <path id="Exclusion_14" data-name="Exclusion 14" d="M51.012,271.689H0V4.277H48.453V30.783a.232.232,0,0,1,.035-.045,108.506,108.506,0,0,1,15.066-14.09A92.349,92.349,0,0,1,80.072,6.325a61.349,61.349,0,0,1,20.4-5.957C102.961.124,105.5,0,108.009,0a77.1,77.1,0,0,1,29.022,5.619,75.735,75.735,0,0,1,26.326,17.826,89.034,89.034,0,0,1,19.224,31.488c4.963,13.558,7.559,29.238,7.715,46.6.158,17.477-2.227,33.15-7.089,46.583a83.778,83.778,0,0,1-19.065,30.826,76.054,76.054,0,0,1-27.481,17.706,85.7,85.7,0,0,1-29.856,5.356,84.035,84.035,0,0,1-12.957-1c-13.854-2.165-24.763-9.578-31.475-15.416a72.831,72.831,0,0,1-11.361-12.272v98.366Zm44.1-232.583c-14.021,0-27.771,8.885-35.031,22.635-5.2,9.814-7.721,22.222-7.721,37.933,0,17.723,3.926,33.359,10.771,42.9A43.485,43.485,0,0,0,77.9,155.8a36.508,36.508,0,0,0,17.216,4.444c12.962,0,23.862-5.674,30.693-15.978,7.551-11.364,12.06-28.033,12.06-44.589C137.866,66.276,118.688,39.106,95.114,39.106Z" transform="translate(6761.48 14847.197)" fill="#003b6b" stroke="#003b6b" stroke-width="1" opacity="0.782"/>
    <path id="Path_143" data-name="Path 143" d="M7227.63,14808.424l51.8-30.033v67.75h34.27v40.723h-34.27v85.121s-1.228,23.264,5.815,27.252,28.454,0,28.454,0l5.2,37.668s-46.851,14.285-69.667,2.939-21.6-48.326-21.6-48.326v-104.654h-23.288v-40.723h23.288Z" transform="translate(1386.756 4.206)" fill="#003b6b" stroke="#003b6b" stroke-width="1" opacity="0.319"/>
    <path id="Exclusion_17" data-name="Exclusion 17" d="M51.012,271.689H0V4.277H48.453V30.783a.232.232,0,0,1,.035-.045,108.506,108.506,0,0,1,15.066-14.09A92.349,92.349,0,0,1,80.072,6.325a61.349,61.349,0,0,1,20.4-5.957C102.961.124,105.5,0,108.009,0a77.1,77.1,0,0,1,29.022,5.619,75.735,75.735,0,0,1,26.326,17.826,89.034,89.034,0,0,1,19.224,31.488c4.963,13.558,7.559,29.238,7.715,46.6.158,17.477-2.227,33.15-7.089,46.583a83.778,83.778,0,0,1-19.065,30.826,76.054,76.054,0,0,1-27.481,17.706,85.7,85.7,0,0,1-29.856,5.356,84.035,84.035,0,0,1-12.957-1c-13.854-2.165-24.763-9.578-31.475-15.416a72.831,72.831,0,0,1-11.361-12.272v98.366Zm44.1-232.583c-14.021,0-27.771,8.885-35.031,22.635-5.2,9.814-7.721,22.222-7.721,37.933,0,17.723,3.926,33.359,10.771,42.9A43.485,43.485,0,0,0,77.9,155.8a36.508,36.508,0,0,0,17.216,4.444c12.962,0,23.862-5.674,30.693-15.978,7.551-11.364,12.06-28.033,12.06-44.589C137.866,66.276,118.688,39.106,95.114,39.106Z" transform="translate(6586.905 14847.197)" fill="#003b6b" stroke="#003b6b" stroke-width="1" opacity="0.852"/>
    <path id="Exclusion_18" data-name="Exclusion 18" d="M269.216,268.228h-.005l-59.006,0L185.868,207.2H79.96l-22.243,61.02H0L104.525,0H162.79L269.214,268.223ZM132.883,63.325h0l-36.608,98.77h74.961l-38.353-98.77Z" transform="translate(6344.869 14776.751)" fill="#003b6b" stroke="#003b6b" stroke-width="1"/>
    <path id="Path_148" data-name="Path 148" d="M7145.827,14800.536l.24,193.359h52.364v-105.461s-2.5-45.225,34.022-52.217,39.244,33.754,39.244,33.754V14993.9h51.633v-138.018s-3.526-47.781-49.121-58-80.979,32.25-80.979,32.25v-29.6Z" transform="translate(1311.615 50.087)" fill="#003b6b" stroke="#003b6b" stroke-width="1" opacity="0.429"/>
    <path id="Exclusion_19" data-name="Exclusion 19" d="M95.963,202.38h0a98.274,98.274,0,0,1-21.534-2.494c-16.741-3.774-31.047-10.582-42.519-20.234A85.906,85.906,0,0,1,9.925,151.269a94.174,94.174,0,0,1-9.454-36.21A139.264,139.264,0,0,1,.545,90.873C1.632,78.009,4.929,59.19,14.468,42.6A83.972,83.972,0,0,1,26.89,26.147,87.9,87.9,0,0,1,43.639,12.592,82.061,82.061,0,0,1,87.015,0c1.122,0,2.261.024,3.386.071a110.072,110.072,0,0,1,38.736,8.5c11.624,5.031,21.066,12.033,27.305,20.249A98.716,98.716,0,0,1,171.9,56.86a141.741,141.741,0,0,1,6.957,28.025,155.3,155.3,0,0,1,1.607,30.174H52.5a72.9,72.9,0,0,0,4.475,21.953,45.137,45.137,0,0,0,9.96,16.086,32.86,32.86,0,0,0,18.989,9.4,44.686,44.686,0,0,0,6.353.471,34.113,34.113,0,0,0,17.1-4.361,36.726,36.726,0,0,0,10.847-9.595,46.058,46.058,0,0,0,7.349-13.956L178.067,145.2l-.008.028A111.714,111.714,0,0,1,158.7,173.789a93.447,93.447,0,0,1-25.512,19.657A80.493,80.493,0,0,1,95.963,202.38ZM92.063,37.7c-.309,0-.618,0-.931.01-8.377.185-15.592,2.739-21.447,7.591A41.583,41.583,0,0,0,58.308,61.215a71.089,71.089,0,0,0-5.281,22.892h77.815a75.167,75.167,0,0,0-5.949-23.2,43.03,43.03,0,0,0-11.65-15.951A32.525,32.525,0,0,0,92.063,37.7Z" transform="translate(8288.788 14847.901)" fill="#003b6b" stroke="#003b6b" stroke-width="1" opacity="0.483"/>
    <path id="Path_151" data-name="Path 151" d="M6993.169,14800.6v193.48h52.016v-105.32s-2.954-42.795,31.01-52,34.3,34.1,34.3,34.1v123.225h51.578v-105.32s-1.873-42.268,30.946-52,34.274,34.1,34.274,34.1v123.225h51.291v-129.422s5.112-50.422-41.216-65.109-81.3,27.463-81.3,27.463-16.783-30.672-54.183-29.869-61.4,29.869-61.4,29.869V14800.6Z" transform="translate(1023.707 54.015)" fill="#003b6b" stroke="#003b6b" stroke-width="1" opacity="0.519"/>
    <path id="Exclusion_20" data-name="Exclusion 20" d="M51.012,271.689H0V4.277H48.453V30.783a.232.232,0,0,1,.035-.045,108.506,108.506,0,0,1,15.066-14.09A92.349,92.349,0,0,1,80.072,6.325a61.349,61.349,0,0,1,20.4-5.957C102.961.124,105.5,0,108.009,0a77.1,77.1,0,0,1,29.022,5.619,75.735,75.735,0,0,1,26.326,17.826,89.034,89.034,0,0,1,19.224,31.488c4.963,13.558,7.559,29.238,7.715,46.6.158,17.477-2.227,33.15-7.089,46.583a83.778,83.778,0,0,1-19.065,30.826,76.054,76.054,0,0,1-27.481,17.706,85.7,85.7,0,0,1-29.856,5.356,84.035,84.035,0,0,1-12.957-1c-13.854-2.165-24.763-9.578-31.475-15.416a72.831,72.831,0,0,1-11.361-12.272v98.366Zm44.1-232.583c-14.021,0-27.771,8.885-35.031,22.635-5.2,9.814-7.721,22.222-7.721,37.933,0,17.723,3.926,33.359,10.771,42.9A43.485,43.485,0,0,0,77.9,155.8a36.508,36.508,0,0,0,17.216,4.444c12.962,0,23.862-5.674,30.693-15.978,7.551-11.364,12.06-28.033,12.06-44.589C137.866,66.276,118.688,39.106,95.114,39.106Z" transform="translate(7840.999 14854.32)" fill="#003b6b" stroke="#003b6b" stroke-width="1" opacity="0.61"/>
    <g id="Exclusion_21" data-name="Exclusion 21" transform="translate(7650 14845)" fill="#003b6b" opacity="0.624">
      <path d="M 102.0016021728516 206.5 C 88.29986572265625 206.5 75.00807952880859 203.7771606445312 62.49542236328125 198.4071350097656 C 50.4089469909668 193.2199401855469 39.55397415161133 185.7937927246094 30.23200035095215 176.3349151611328 C 20.90944671630859 166.8756103515625 13.5901575088501 155.8602600097656 8.477395057678223 143.5948638916016 C 3.183973789215088 130.8961334228516 0.5 117.4062881469727 0.5 103.5 C 0.5 89.59368133544922 3.183973789215088 76.10384368896484 8.477395057678223 63.40515899658203 C 13.59018421173096 51.13973617553711 20.90947341918945 40.12436676025391 30.23200035095215 30.66507911682129 C 39.55389404296875 21.20628929138184 50.40889358520508 13.78013134002686 62.49542236328125 8.592894554138184 C 75.00804901123047 3.222842216491699 88.29984283447266 0.5 102.0016021728516 0.5 C 115.7033386230469 0.5 128.9949798583984 3.222842216491699 141.5072937011719 8.592894554138184 C 153.5933990478516 13.78002643585205 164.4480285644531 21.20618438720703 173.7696380615234 30.66505241394043 C 183.0917358398438 40.12442016601562 190.4106597900391 51.13978958129883 195.5230865478516 63.40515899658203 C 200.8161773681641 76.10384368896484 203.5 89.59368133544922 203.5 103.5 C 203.5 117.4062881469727 200.8161773681641 130.8961639404297 195.5230865478516 143.5948638916016 C 190.4106903076172 155.8602142333984 183.0917663574219 166.8755493164062 173.7696380615234 176.3349456787109 C 164.447998046875 185.7938385009766 153.5933685302734 193.2200012207031 141.5072937011719 198.4071350097656 C 128.9949493408203 203.7771606445312 115.7033157348633 206.5 102.0016021728516 206.5 Z M 101.8486022949219 42.32860565185547 C 101.5445251464844 42.32860565185547 101.2354736328125 42.33126449584961 100.9300537109375 42.33652496337891 C 88.90210723876953 42.54568481445312 76.53360748291016 48.27155303955078 68.65123748779297 57.27960586547852 C 63.53850173950195 63.10110473632812 59.76494598388672 70.28876495361328 57.43600082397461 78.64223480224609 C 55.33184051513672 86.18971252441406 54.3504753112793 94.89644622802734 54.51915740966797 104.5205764770508 C 54.79484176635742 120.1853942871094 58.65478897094727 134.078369140625 65.38796997070312 143.6402893066406 C 74.19365692138672 156.1869201660156 87.32647705078125 163.0970458984375 102.3667068481445 163.0971374511719 C 102.6525802612305 163.0971374511719 102.9423675537109 163.0945739746094 103.22802734375 163.0895233154297 C 110.8817901611328 162.9576568603516 118.2409210205078 161.2366638183594 124.5096054077148 158.1125793457031 C 131.2689514160156 154.7440338134766 136.7137908935547 149.8683624267578 140.69287109375 143.6210327148438 C 144.3176879882812 137.9456634521484 147.0513458251953 131.3402099609375 148.817626953125 123.9887084960938 C 150.4742431640625 117.0935821533203 151.2457733154297 109.7126846313477 151.1107940673828 102.0502700805664 C 151.1164855957031 84.64408111572266 147.0772705078125 70.55957794189453 139.1053924560547 60.18544769287109 C 130.2777557373047 48.67018508911133 117.0462341308594 42.32834243774414 101.8486022949219 42.32860565185547 Z" stroke="none"/>
      <path d="M 102.0016021728516 206 C 115.6351318359375 206 128.8604278564453 203.2907867431641 141.3100738525391 197.9476623535156 C 153.3363952636719 192.7861785888672 164.1375579833984 185.3965454101562 173.4134979248047 175.9839782714844 C 182.6904449462891 166.5704193115234 189.9739227294922 155.6084442138672 195.0615844726562 143.4024963378906 C 200.3291320800781 130.7650451660156 203 117.3399200439453 203 103.5 C 203 89.66007995605469 200.3291320800781 76.23494720458984 195.0615844726562 63.59752655029297 C 189.9739227294922 51.39155197143555 182.6904449462891 40.4295539855957 173.4134979248047 31.01602554321289 C 164.1375732421875 21.60350036621094 153.33642578125 14.21384239196777 141.3100738525391 9.0523681640625 C 128.8604278564453 3.709210634231567 115.6351547241211 1 102.0016021728516 1 C 88.36804962158203 1 75.142578125 3.709210634231567 62.69263076782227 9.0523681640625 C 50.66586685180664 14.21394729614258 39.86434173583984 21.60360527038574 30.58810615539551 31.01605224609375 C 21.31076240539551 40.42950057983398 14.02692127227783 51.39149856567383 8.938920974731445 63.59755325317383 C 3.671026229858398 76.23494720458984 1 89.66004943847656 1 103.5 C 1 117.3398971557617 3.671026229858398 130.7650299072266 8.938920974731445 143.4024810791016 C 14.02692127227783 155.6085052490234 21.31076240539551 166.5704803466797 30.58810615539551 175.9839477539062 C 39.86442184448242 185.3964691162109 50.66594696044922 192.7861328125 62.69263076782227 197.9476623535156 C 75.14260864257812 203.2907867431641 88.36804962158203 206 102.0016021728516 206 M 101.8486022949219 41.82860565185547 L 101.8485794067383 41.82860565185547 C 101.8485794067383 41.82860565185547 101.8485794067383 41.82860565185547 101.8486022949219 41.82860565185547 L 101.8485794067383 41.82860565185547 C 117.2053451538086 41.82834243774414 130.5777587890625 48.23971176147461 139.5018463134766 59.88079071044922 C 147.54150390625 70.34310913085938 151.6155090332031 84.52999877929688 151.6107940673828 102.0460205078125 C 151.7461853027344 109.7491760253906 150.9700012207031 117.1705703735352 149.3038177490234 124.1054992675781 C 147.5245056152344 131.5111541748047 144.7690277099609 138.1678619384766 141.1146087646484 143.8896331787109 C 137.0860595703125 150.2146301269531 131.5743408203125 155.1504669189453 124.7326049804688 158.5601043701172 C 118.3976821899414 161.7171783447266 110.9644241333008 163.4562835693359 103.2368392944336 163.5894470214844 C 102.9482650756836 163.5945587158203 102.6555023193359 163.5971374511719 102.3667068481445 163.5971374511719 C 87.15884399414062 163.5970458984375 73.88070678710938 156.6113739013672 64.97915649414062 143.9281616210938 C 58.18897247314453 134.2852935791016 54.29665756225586 120.293212890625 54.01923751831055 104.5293426513672 C 53.84971237182617 94.85686492919922 54.83721160888672 86.10199737548828 56.95436859130859 78.50797271728516 C 59.30363082885742 70.08152770996094 63.11284255981445 62.82805252075195 68.27497100830078 56.95034027099609 C 76.24736785888672 47.83939361572266 88.7567138671875 42.04813003540039 100.9214706420898 41.83660507202148 C 101.229736328125 41.83129119873047 101.5416870117188 41.82860565185547 101.8486022949219 41.82860565185547 M 102.0016021728516 207 C 88.23160552978516 207 74.87347412109375 204.2635040283203 62.29823684692383 198.8666076660156 C 50.15197372436523 193.6537628173828 39.24349975585938 186.1910858154297 29.87586784362793 176.6858978271484 C 20.50813102722168 167.1807098388672 13.15339469909668 156.1119995117188 8.015894889831543 143.7872314453125 C 2.696921110153198 131.0272064208984 0 117.4726333618164 0 103.5 C 0 89.52736663818359 2.696921110153198 75.97276306152344 8.015894889831543 63.21278762817383 C 13.15339469909668 50.88802719116211 20.50813102722168 39.81929016113281 29.87586784362793 30.31410598754883 C 39.24349975585938 20.80892181396484 50.15197372436523 13.34628963470459 62.29823684692383 8.133420944213867 C 74.87347412109375 2.736500024795532 88.23160552978516 0 102.0016021728516 0 C 115.7715759277344 0 129.1295471191406 2.736500024795532 141.7044677734375 8.133420944213867 C 153.8504180908203 13.34623718261719 164.7585296630859 20.80892181396484 174.1257629394531 30.31410598754883 C 183.4930267333984 39.81929016113281 190.8474273681641 50.88802719116211 195.9846038818359 63.21278762817383 C 201.3032684326172 75.97281646728516 204 89.52736663818359 204 103.5 C 204 117.4726333618164 201.3032684326172 131.0271911621094 195.9846038818359 143.7872314453125 C 190.8474273681641 156.1119995117188 183.4930267333984 167.1807098388672 174.1257629394531 176.6858978271484 C 164.7585296630859 186.1910858154297 153.8504180908203 193.6537933349609 141.7044677734375 198.8666076660156 C 129.1295471191406 204.2635040283203 115.7715759277344 207 102.0016021728516 207 Z M 101.8486022949219 42.82860565185547 C 101.5455780029297 42.82860565185547 101.2416305541992 42.83123779296875 100.9386596679688 42.83644866943359 C 89.04755401611328 43.04323577880859 76.81989288330078 48.70365905761719 69.02752685546875 57.60886764526367 C 63.96410369873047 63.37418365478516 60.22621154785156 70.49605560302734 57.91763305664062 78.77652740478516 C 55.82647323608398 86.27734375 54.85123825073242 94.93592071533203 55.01907730102539 104.5118179321289 C 55.29302597045898 120.0776062011719 59.12063217163086 133.8714752197266 65.79679107666016 143.3524169921875 C 74.50662994384766 155.7624664306641 87.49404907226562 162.5970458984375 102.3667068481445 162.5971374511719 C 102.650634765625 162.5971374511719 102.9346313476562 162.5946350097656 103.2191848754883 162.589599609375 C 110.7991561889648 162.4589996337891 118.0841293334961 160.7561340332031 124.2865753173828 157.6650848388672 C 130.9635009765625 154.3376007080078 136.3414764404297 149.5221862792969 140.2711639404297 143.3524169921875 C 143.8662872314453 137.7234954833984 146.5781860351562 131.1693115234375 148.3314666748047 123.8718948364258 C 149.9785308837891 117.0166015625 150.7453918457031 109.676155090332 150.6107940673828 102.0545501708984 C 150.6169281005859 84.75968170166016 146.612548828125 70.77542114257812 138.7089233398438 60.49010467529297 C 129.9777374267578 49.10065841674805 116.8871841430664 42.82834243774414 101.8486022949219 42.82860565185547 Z" stroke="none" fill="#003b6b"/>
    </g>
    <path id="Path_155" data-name="Path 155" d="M6836.764,14776.727v267.512h51.809v-267.512Z" transform="translate(772.511 7.056)" fill="#003b6b" stroke="#003b6b" stroke-width="1" opacity="0.66"/>
    <path id="Exclusion_22" data-name="Exclusion 22" d="M95.963,202.38h0a98.274,98.274,0,0,1-21.534-2.494c-16.741-3.774-31.047-10.582-42.519-20.234A85.906,85.906,0,0,1,9.925,151.269a94.174,94.174,0,0,1-9.454-36.21A139.264,139.264,0,0,1,.545,90.873C1.632,78.009,4.929,59.19,14.468,42.6A83.972,83.972,0,0,1,26.89,26.147,87.9,87.9,0,0,1,43.639,12.592,82.061,82.061,0,0,1,87.015,0c1.122,0,2.261.024,3.386.071a110.072,110.072,0,0,1,38.736,8.5c11.624,5.031,21.066,12.033,27.305,20.249A98.716,98.716,0,0,1,171.9,56.86a141.741,141.741,0,0,1,6.957,28.025,155.3,155.3,0,0,1,1.607,30.174H52.5a72.9,72.9,0,0,0,4.475,21.953,45.137,45.137,0,0,0,9.96,16.086,32.86,32.86,0,0,0,18.989,9.4,44.686,44.686,0,0,0,6.353.471,34.113,34.113,0,0,0,17.1-4.361,36.726,36.726,0,0,0,10.847-9.595,46.058,46.058,0,0,0,7.349-13.956L178.067,145.2l-.008.028A111.714,111.714,0,0,1,158.7,173.789a93.447,93.447,0,0,1-25.512,19.657A80.493,80.493,0,0,1,95.963,202.38ZM92.063,37.7c-.309,0-.618,0-.931.01-8.377.185-15.592,2.739-21.447,7.591A41.583,41.583,0,0,0,58.308,61.215a71.089,71.089,0,0,0-5.281,22.892h77.815a75.167,75.167,0,0,0-5.949-23.2,43.03,43.03,0,0,0-11.65-15.951A32.525,32.525,0,0,0,92.063,37.7Z" transform="translate(7440.85 14847.901)" fill="#003b6b" stroke="#003b6b" stroke-width="1" opacity="0.681"/>
    <path id="Path_158" data-name="Path 158" d="M6712.911,14797.41l78.431,193.559h45.96l78.137-193.559H6862.63l-49.144,135.164-47.57-135.164Z" transform="translate(572.678 56.511)" fill="#003b6b" stroke="#003b6b" stroke-width="1" opacity="0.752"/>
    <path id="Exclusion_23" data-name="Exclusion 23" d="M95.963,202.38h0a98.274,98.274,0,0,1-21.534-2.494c-16.741-3.774-31.047-10.582-42.519-20.234A85.906,85.906,0,0,1,9.925,151.269a94.174,94.174,0,0,1-9.454-36.21A139.264,139.264,0,0,1,.545,90.873C1.632,78.009,4.929,59.19,14.468,42.6A83.972,83.972,0,0,1,26.89,26.147,87.9,87.9,0,0,1,43.639,12.592,82.061,82.061,0,0,1,87.015,0c1.122,0,2.261.024,3.386.071a110.072,110.072,0,0,1,38.736,8.5c11.624,5.031,21.066,12.033,27.305,20.249A98.716,98.716,0,0,1,171.9,56.86a141.741,141.741,0,0,1,6.957,28.025,155.3,155.3,0,0,1,1.607,30.174H52.5a72.9,72.9,0,0,0,4.475,21.953,45.137,45.137,0,0,0,9.96,16.086,32.86,32.86,0,0,0,18.989,9.4,44.686,44.686,0,0,0,6.353.471,34.113,34.113,0,0,0,17.1-4.361,36.726,36.726,0,0,0,10.847-9.595,46.058,46.058,0,0,0,7.349-13.956L178.067,145.2l-.008.028A111.714,111.714,0,0,1,158.7,173.789a93.447,93.447,0,0,1-25.512,19.657A80.493,80.493,0,0,1,95.963,202.38ZM92.063,37.7c-.309,0-.618,0-.931.01-8.377.185-15.592,2.739-21.447,7.591A41.583,41.583,0,0,0,58.308,61.215a71.089,71.089,0,0,0-5.281,22.892h77.815a75.167,75.167,0,0,0-5.949-23.2,43.03,43.03,0,0,0-11.65-15.951A32.525,32.525,0,0,0,92.063,37.7Z" transform="translate(7152.265 14847.901)" fill="#003b6b" stroke="#003b6b" stroke-width="1" opacity="0.87"/>
    <path id="Exclusion_24" data-name="Exclusion 24" d="M113.738,268.042h0c-1.066,0-1.659-.028-1.683-.029L0,267.186.16.085H112.054c.012,0,1.25-.085,3.377-.085a114.968,114.968,0,0,1,28.19,3.725,98.192,98.192,0,0,1,39.765,20.313c11.8,10.135,21.683,24.409,28.567,41.279,7.667,18.787,11.637,40.365,11.8,64.135a209.554,209.554,0,0,1-2.946,37.028,170.351,170.351,0,0,1-8.546,31.607c-7.062,18.514-17.046,33.729-28.874,44a105.189,105.189,0,0,1-42.444,22.15A109.787,109.787,0,0,1,113.738,268.042Zm-59.92-223.5h0V221.971h51.855a79.131,79.131,0,0,0,18.818-2.6c12.321-3.238,21.657-8.929,27.747-16.916,11.18-12.6,16.594-34.57,16.552-67.157-.039-29.757-4.338-50.235-13.531-64.444a55.785,55.785,0,0,0-28.107-22.5,61.23,61.23,0,0,0-20.479-3.831c-.759,0-1.187.024-1.191.024H53.818Z" transform="translate(6957.799 14777.3)" fill="#003b6b" stroke="#003b6b" stroke-width="1"/>
  </g>
</svg>
