<svg xmlns="http://www.w3.org/2000/svg" width="1228.683" height="698.955" viewBox="0 0 1228.683 698.955">
  <g id="digitalmarketing" transform="translate(-7237.207 -18130.801)">
    <path id="Exclusion_45" data-name="Exclusion 45" d="M100.1,275.756a212.224,212.224,0,0,1-41.431-3.744,107.875,107.875,0,0,1-17.219-4.888,53.343,53.343,0,0,1-13.178-7.082,52.553,52.553,0,0,1-13.732-15.685,57.918,57.918,0,0,1-6.167-16.078,59.652,59.652,0,0,1-1.4-17.587l57.926,6.9a16.618,16.618,0,0,0,.946,4.987,18.93,18.93,0,0,0,2.34,4.654,19.455,19.455,0,0,0,4.614,4.689,24.834,24.834,0,0,0,9.27,3.724,67.368,67.368,0,0,0,14.1,1.3c1.282,0,2.617-.025,3.968-.076a54.535,54.535,0,0,0,19.046-3.775,30.715,30.715,0,0,0,10.6-7.143,23.7,23.7,0,0,0,4.577-6.92,14.834,14.834,0,0,0,.986-3.1c.013-.056,1.309-5.74,1.74-18.118.429-12.317,0-31.69,0-31.884l-.007.013a82.444,82.444,0,0,1-11.685,13.071,77,77,0,0,1-13.646,10.03,57.393,57.393,0,0,1-17.986,6.734,78.353,78.353,0,0,1-14.18,1.289h-.007a78.566,78.566,0,0,1-13.733-1.207,75.253,75.253,0,0,1-13.717-3.8,71.321,71.321,0,0,1-25.241-16.447A84.213,84.213,0,0,1,8.1,145.593a119.1,119.1,0,0,1-5.632-20.758A162.751,162.751,0,0,1,.048,99.888c-.4-17.2,1.764-32.689,6.441-46.036A82.726,82.726,0,0,1,25.183,23.046,74.881,74.881,0,0,1,52,5.445,80.919,80.919,0,0,1,66.746,1.322,83.636,83.636,0,0,1,81.546,0,81.765,81.765,0,0,1,93.427.863a58.9,58.9,0,0,1,19.358,6.595,79.219,79.219,0,0,1,14.749,10.407,85.249,85.249,0,0,1,12.693,13.846V5.119h47.358l.7,175.686a152.277,152.277,0,0,1-1.407,23.742,138.224,138.224,0,0,1-4.763,22.177,89.636,89.636,0,0,1-10.14,22.382,55.693,55.693,0,0,1-10.089,10.1,68.114,68.114,0,0,1-13.5,8.109c-10.608,4.852-23.005,7.609-36.847,8.194C107.731,275.675,103.882,275.756,100.1,275.756ZM94.978,39a39.221,39.221,0,0,0-17.6,4.391A40.515,40.515,0,0,0,62.934,55.552,44.759,44.759,0,0,0,58,64.364a60.777,60.777,0,0,0-3.229,10.115A102.422,102.422,0,0,0,52.478,97.5a105.3,105.3,0,0,0,2.728,24.527c1.977,8.093,4.921,14.711,8.751,19.669a35.393,35.393,0,0,0,14.182,10.922A42.8,42.8,0,0,0,94.978,156a38.113,38.113,0,0,0,19.233-5.413,43.107,43.107,0,0,0,15.077-15.015,54.935,54.935,0,0,0,6.407-17.582A106.768,106.768,0,0,0,137.478,97.5c0-16.3-2.63-28.991-7.817-37.709A43.719,43.719,0,0,0,114.317,44.4,38.348,38.348,0,0,0,94.978,39Z" transform="translate(7723.022 18205.5)" fill="#003b6b" stroke="#003b6b" stroke-width="1" opacity="0.657"/>
    <path id="Path_238" data-name="Path 238" d="M6836.764,14776.727V14970.6h51.809v-193.869Z" transform="translate(850.511 3429.056)" fill="#003b6b" stroke="#003b6b" stroke-width="1" opacity="0.66"/>
    <path id="Path_239" data-name="Path 239" d="M6836.764,14776.727v48.287h51.809v-48.287Z" transform="translate(850.511 3357.056)" fill="#003b6b" stroke="#003b6b" stroke-width="1" opacity="0.66"/>
    <path id="Path_240" data-name="Path 240" d="M6836.764,14776.727V14970.6h51.809v-193.869Z" transform="translate(1057.511 3433.056)" fill="#003b6b" stroke="#003b6b" stroke-width="1" opacity="0.66"/>
    <path id="Path_241" data-name="Path 241" d="M6836.764,14776.727v48.287h51.809v-48.287Z" transform="translate(1057.511 3361.056)" fill="#003b6b" stroke="#003b6b" stroke-width="1" opacity="0.66"/>
    <path id="Exclusion_46" data-name="Exclusion 46" d="M113.738,268.042h0c-1.066,0-1.659-.028-1.683-.029L0,267.186.16.085H112.054c.012,0,1.25-.085,3.377-.085a114.968,114.968,0,0,1,28.19,3.725,98.192,98.192,0,0,1,39.765,20.313c11.8,10.135,21.683,24.409,28.567,41.279,7.667,18.787,11.637,40.365,11.8,64.135a209.554,209.554,0,0,1-2.946,37.028,170.351,170.351,0,0,1-8.546,31.607c-7.062,18.514-17.046,33.729-28.874,44a105.189,105.189,0,0,1-42.444,22.15A109.787,109.787,0,0,1,113.738,268.042Zm-59.92-223.5h0V221.971h51.855a79.131,79.131,0,0,0,18.818-2.6c12.321-3.238,21.657-8.929,27.747-16.916,11.18-12.6,16.594-34.57,16.552-67.157-.039-29.757-4.338-50.235-13.531-64.444a55.785,55.785,0,0,0-28.107-22.5,61.23,61.23,0,0,0-20.479-3.831c-.759,0-1.187.024-1.191.024H53.818Z" transform="translate(7480.799 18131.301)" fill="#003b6b" stroke="#003b6b" stroke-width="1"/>
    <path id="Path_244" data-name="Path 244" d="M7227.63,14808.424l51.8-30.033v67.75h34.27v40.723h-34.27v85.121s-1.228,23.264,5.815,27.252,28.454,0,28.454,0l5.2,37.668s-46.851,14.285-69.667,2.939-21.6-48.326-21.6-48.326v-104.654h-23.288v-40.723h23.288Z" transform="translate(729.756 3364.206)" fill="#003b6b" stroke="#003b6b" stroke-width="1" opacity="0.832"/>
    <path id="Exclusion_47" data-name="Exclusion 47" d="M62.78,202.014c-14.379,0-27.356-3.352-37.53-9.694A50.249,50.249,0,0,1,10.8,178.806a56.668,56.668,0,0,1-8.929-20.533C-.54,147.6-.621,137.758,1.637,129.02a45.852,45.852,0,0,1,13.6-22.554c15.14-13.954,39.086-18.84,60.213-23.152,2.9-.593,5.644-1.152,8.353-1.731a293.844,293.844,0,0,0,36-10.11,42.034,42.034,0,0,0-.371-8.393,38.132,38.132,0,0,0-1.911-7.792,26.792,26.792,0,0,0-4.347-7.789c-3.767-4.6-9.2-5.661-20.036-7.766a43.871,43.871,0,0,0-8.346-.813A40.376,40.376,0,0,0,72.1,40.927a33.826,33.826,0,0,0-9.639,4.939,28.72,28.72,0,0,0-5.775,5.821A30.831,30.831,0,0,0,53.3,57.479,26.842,26.842,0,0,0,51.313,63.7L4.678,54.954v-.01a51.624,51.624,0,0,1,2.527-8.577A69.831,69.831,0,0,1,18.027,27.477,68.611,68.611,0,0,1,42,8.586,83.051,83.051,0,0,1,60.434,2.361,112.039,112.039,0,0,1,83.979,0c3.153,0,6.428.113,9.732.336,15.36,1.037,27.461,2.871,37,5.607,10.011,2.873,17.543,6.827,23.026,12.088a47.046,47.046,0,0,1,9.939,13.893,56.235,56.235,0,0,1,4.4,13.811,57.635,57.635,0,0,1,.909,14.817c-.011.638-1.036,64.192.423,93.465a129.029,129.029,0,0,0,2.359,19.27,95.01,95.01,0,0,0,3.75,13.488,49.366,49.366,0,0,0,5,10.523h-50.26l-.008-.017c-.259-.6-2.579-6.01-4.192-11.018a101.064,101.064,0,0,1-2.7-10.383l-.006.01a64.363,64.363,0,0,1-9.5,9.192,76.7,76.7,0,0,1-11.49,7.632,70.966,70.966,0,0,1-15.637,6.21A95.453,95.453,0,0,1,62.78,202.014Zm56.309-94.965c-.245.049-24.641,4.946-39.276,8.832C65.2,119.759,60,122.724,59.947,122.754a23.568,23.568,0,0,0-6.513,7.613,21.659,21.659,0,0,0-2.606,9.286,27.17,27.17,0,0,0,2.748,12.733A23.288,23.288,0,0,0,65,164.112a30.071,30.071,0,0,0,12.837,2.633,34.909,34.909,0,0,0,7.481-.763,54.812,54.812,0,0,0,11.348-3.628,46.115,46.115,0,0,0,9.582-5.6,31.079,31.079,0,0,0,8.1-9.076,40.188,40.188,0,0,0,4.3-12.563,79.685,79.685,0,0,0,1.234-13.275A105.677,105.677,0,0,0,119.089,107.05Z" transform="translate(8018.158 18197.402)" fill="#003b6b" stroke="#003b6b" stroke-width="1" opacity="0.699"/>
    <path id="Path_247" data-name="Path 247" d="M6634.318,17055.066v267.547h54.449v-267.547Z" transform="translate(1539 1079)" fill="#003b6b" stroke="#003b6b" stroke-width="1" opacity="0.887"/>
    <path id="Exclusion_48" data-name="Exclusion 48" d="M62.78,202.014c-14.379,0-27.356-3.352-37.53-9.694A50.249,50.249,0,0,1,10.8,178.806a56.668,56.668,0,0,1-8.929-20.533C-.54,147.6-.621,137.758,1.637,129.02a45.852,45.852,0,0,1,13.6-22.554c15.14-13.954,39.086-18.84,60.213-23.152,2.9-.593,5.644-1.152,8.353-1.731a293.844,293.844,0,0,0,36-10.11,42.034,42.034,0,0,0-.371-8.393,38.132,38.132,0,0,0-1.911-7.792,26.792,26.792,0,0,0-4.347-7.789c-3.767-4.6-9.2-5.661-20.036-7.766a43.871,43.871,0,0,0-8.346-.813A40.376,40.376,0,0,0,72.1,40.927a33.826,33.826,0,0,0-9.639,4.939,28.72,28.72,0,0,0-5.775,5.821A30.831,30.831,0,0,0,53.3,57.479,26.842,26.842,0,0,0,51.313,63.7L4.678,54.954v-.01a51.624,51.624,0,0,1,2.527-8.577A69.831,69.831,0,0,1,18.027,27.477,68.611,68.611,0,0,1,42,8.586,83.051,83.051,0,0,1,60.434,2.361,112.039,112.039,0,0,1,83.979,0c3.153,0,6.428.113,9.732.336,15.36,1.037,27.461,2.871,37,5.607,10.011,2.873,17.543,6.827,23.026,12.088a47.046,47.046,0,0,1,9.939,13.893,56.235,56.235,0,0,1,4.4,13.811,57.635,57.635,0,0,1,.909,14.817c-.011.638-1.036,64.192.423,93.465a129.029,129.029,0,0,0,2.359,19.27,95.01,95.01,0,0,0,3.75,13.488,49.366,49.366,0,0,0,5,10.523h-50.26l-.008-.017c-.259-.6-2.579-6.01-4.192-11.018a101.064,101.064,0,0,1-2.7-10.383l-.006.01a64.363,64.363,0,0,1-9.5,9.192,76.7,76.7,0,0,1-11.49,7.632,70.966,70.966,0,0,1-15.637,6.21A95.453,95.453,0,0,1,62.78,202.014Zm56.309-94.965c-.245.049-24.641,4.946-39.276,8.832C65.2,119.759,60,122.724,59.947,122.754a23.568,23.568,0,0,0-6.513,7.613,21.659,21.659,0,0,0-2.606,9.286,27.17,27.17,0,0,0,2.748,12.733A23.288,23.288,0,0,0,65,164.112a30.071,30.071,0,0,0,12.837,2.633,34.909,34.909,0,0,0,7.481-.763,54.812,54.812,0,0,0,11.348-3.628,46.115,46.115,0,0,0,9.582-5.6,31.079,31.079,0,0,0,8.1-9.076,40.188,40.188,0,0,0,4.3-12.563,79.685,79.685,0,0,0,1.234-13.275A105.677,105.677,0,0,0,119.089,107.05Z" transform="translate(7476.158 18550.402)" fill="#003b6b" stroke="#003b6b" stroke-width="1" opacity="0.856"/>
    <path id="Path_250" data-name="Path 250" d="M7905.115,15894.27v27.559s13.109-24.878,32.42-30.4,44.823,8.313,44.823,8.313l-15.188,44.178s-25.92-17.223-42.908-1.721-14.74,57.88-14.74,57.88v86.4h-51.578V15894.27Z" transform="translate(-221 2663)" fill="#003b6b" stroke="#003b6b" stroke-width="1" opacity="0.812"/>
    <path id="Exclusion_49" data-name="Exclusion 49" d="M95.963,202.38h0a98.274,98.274,0,0,1-21.534-2.494c-16.741-3.774-31.047-10.582-42.519-20.234A85.906,85.906,0,0,1,9.925,151.269a94.174,94.174,0,0,1-9.454-36.21A139.264,139.264,0,0,1,.545,90.873C1.632,78.009,4.929,59.19,14.468,42.6A83.972,83.972,0,0,1,26.89,26.147,87.9,87.9,0,0,1,43.639,12.592,82.061,82.061,0,0,1,87.015,0c1.122,0,2.261.024,3.386.071a110.072,110.072,0,0,1,38.736,8.5c11.624,5.031,21.066,12.033,27.305,20.249A98.716,98.716,0,0,1,171.9,56.86a141.741,141.741,0,0,1,6.957,28.025,155.3,155.3,0,0,1,1.607,30.174H52.5a72.9,72.9,0,0,0,4.475,21.953,45.137,45.137,0,0,0,9.96,16.086,32.86,32.86,0,0,0,18.989,9.4,44.686,44.686,0,0,0,6.353.471,34.113,34.113,0,0,0,17.1-4.361,36.726,36.726,0,0,0,10.847-9.595,46.058,46.058,0,0,0,7.349-13.956L178.067,145.2l-.008.028A111.714,111.714,0,0,1,158.7,173.789a93.447,93.447,0,0,1-25.512,19.657A80.493,80.493,0,0,1,95.963,202.38ZM92.063,37.7c-.309,0-.618,0-.931.01-8.377.185-15.592,2.739-21.447,7.591A41.583,41.583,0,0,0,58.308,61.215a71.089,71.089,0,0,0-5.281,22.892h77.815a75.167,75.167,0,0,0-5.949-23.2,43.03,43.03,0,0,0-11.65-15.951A32.525,32.525,0,0,0,92.063,37.7Z" transform="translate(7854.266 18552.902)" fill="#003b6b" stroke="#003b6b" stroke-width="1" opacity="0.8"/>
    <path id="Path_253" data-name="Path 253" d="M7227.63,14808.424l51.8-30.033v67.75h34.27v40.723h-34.27v85.121s-1.228,23.264,5.815,27.252,28.454,0,28.454,0l5.2,37.668s-46.851,14.285-69.667,2.939-21.6-48.326-21.6-48.326v-104.654h-23.288v-40.723h23.288Z" transform="translate(791.756 3715.206)" fill="#003b6b" stroke="#003b6b" stroke-width="1" opacity="0.767"/>
    <path id="Path_254" data-name="Path 254" d="M6836.764,14776.727V14970.6h51.809v-193.869Z" transform="translate(1247.511 3782.056)" fill="#003b6b" stroke="#003b6b" stroke-width="1" opacity="0.66"/>
    <path id="Path_255" data-name="Path 255" d="M6836.764,14776.727v48.287h51.809v-48.287Z" transform="translate(1247.511 3712.056)" fill="#003b6b" stroke="#003b6b" stroke-width="1" opacity="0.66"/>
    <path id="Path_256" data-name="Path 256" d="M7145.827,14800.536l.24,193.359h52.364v-105.461s-2.5-45.225,34.022-52.217,39.244,33.754,39.244,33.754V14993.9h51.633v-138.018s-3.526-47.781-49.121-58-80.979,32.25-80.979,32.25v-29.6Z" transform="translate(976.615 3759.087)" fill="#003b6b" stroke="#003b6b" stroke-width="1" opacity="0.495"/>
    <path id="Exclusion_50" data-name="Exclusion 50" d="M100.1,275.756a212.224,212.224,0,0,1-41.431-3.744,107.875,107.875,0,0,1-17.219-4.888,53.343,53.343,0,0,1-13.178-7.082,52.553,52.553,0,0,1-13.732-15.685,57.918,57.918,0,0,1-6.167-16.078,59.652,59.652,0,0,1-1.4-17.587l57.926,6.9a16.618,16.618,0,0,0,.946,4.987,18.93,18.93,0,0,0,2.34,4.654,19.455,19.455,0,0,0,4.614,4.689,24.834,24.834,0,0,0,9.27,3.724,67.368,67.368,0,0,0,14.1,1.3c1.282,0,2.617-.025,3.968-.076a54.535,54.535,0,0,0,19.046-3.775,30.715,30.715,0,0,0,10.6-7.143,23.7,23.7,0,0,0,4.577-6.92,14.834,14.834,0,0,0,.986-3.1c.013-.056,1.309-5.74,1.74-18.118.429-12.317,0-31.69,0-31.884l-.007.013a82.444,82.444,0,0,1-11.685,13.071,77,77,0,0,1-13.646,10.03,57.393,57.393,0,0,1-17.986,6.734,78.353,78.353,0,0,1-14.18,1.289h-.007a78.566,78.566,0,0,1-13.733-1.207,75.253,75.253,0,0,1-13.717-3.8,71.321,71.321,0,0,1-25.241-16.447A84.213,84.213,0,0,1,8.1,145.593a119.1,119.1,0,0,1-5.632-20.758A162.751,162.751,0,0,1,.048,99.888c-.4-17.2,1.764-32.689,6.441-46.036A82.726,82.726,0,0,1,25.183,23.046,74.881,74.881,0,0,1,52,5.445,80.919,80.919,0,0,1,66.746,1.322,83.636,83.636,0,0,1,81.546,0,81.765,81.765,0,0,1,93.427.863a58.9,58.9,0,0,1,19.358,6.595,79.219,79.219,0,0,1,14.749,10.407,85.249,85.249,0,0,1,12.693,13.846V5.119h47.358l.7,175.686a152.277,152.277,0,0,1-1.407,23.742,138.224,138.224,0,0,1-4.763,22.177,89.636,89.636,0,0,1-10.14,22.382,55.693,55.693,0,0,1-10.089,10.1,68.114,68.114,0,0,1-13.5,8.109c-10.608,4.852-23.005,7.609-36.847,8.194C107.731,275.675,103.882,275.756,100.1,275.756ZM94.978,39a39.221,39.221,0,0,0-17.6,4.391A40.515,40.515,0,0,0,62.934,55.552,44.759,44.759,0,0,0,58,64.364a60.777,60.777,0,0,0-3.229,10.115A102.422,102.422,0,0,0,52.478,97.5a105.3,105.3,0,0,0,2.728,24.527c1.977,8.093,4.921,14.711,8.751,19.669a35.393,35.393,0,0,0,14.182,10.922A42.8,42.8,0,0,0,94.978,156a38.113,38.113,0,0,0,19.233-5.413,43.107,43.107,0,0,0,15.077-15.015,54.935,54.935,0,0,0,6.407-17.582A106.768,106.768,0,0,0,137.478,97.5c0-16.3-2.63-28.991-7.817-37.709A43.719,43.719,0,0,0,114.317,44.4,38.348,38.348,0,0,0,94.978,39Z" transform="translate(8277.021 18553.5)" fill="#003b6b" stroke="#003b6b" stroke-width="1" opacity="0.512"/>
    <path id="Path_259" data-name="Path 259" d="M7646.708,17805.445l.427-266.27h80.03l48.564,182.072,46.984-182.072h79.4v264.748h-47.4v-209.895l-53.957,209.895h-50.828l-53.352-209.895-.3,211.416Z" transform="translate(-409 942)" fill="#11385a" stroke="#11385a" stroke-width="1"/>
    <path id="Path_260" data-name="Path 260" d="M8306.617,17538.961v266.053h50.79v-61.451l24.4-25.2,48.471,86.652h53.639l-69.688-121.721,65.447-71.15H8417.55l-60.143,68.619v-141.8Z" transform="translate(-567 944)" fill="#073a63" stroke="#073a63" stroke-width="1" opacity="0.77"/>
  </g>
</svg>
