<svg xmlns="http://www.w3.org/2000/svg" width="1654.587" height="362.035" viewBox="0 0 1654.587 362.035">
  <g id="uiux" transform="translate(-6365.858 -17042.721)">
    <path id="Path_218" data-name="Path 218" d="M6836.764,14776.727V14970.6h51.809v-193.869Z" transform="translate(798.511 2357.056)" fill="#003b6b" stroke="#003b6b" stroke-width="1" opacity="0.66"/>
    <path id="Path_219" data-name="Path 219" d="M7145.827,14800.536l.24,193.359h52.364v-105.461s-2.5-45.225,34.022-52.217,39.244,33.754,39.244,33.754V14993.9h51.633v-138.018s-3.526-47.781-49.121-58-80.979,32.25-80.979,32.25v-29.6Z" transform="translate(696.615 2332.087)" fill="#003b6b" stroke="#003b6b" stroke-width="1" opacity="0.429"/>
    <path id="Exclusion_42" data-name="Exclusion 42" d="M100.1,275.756a212.224,212.224,0,0,1-41.431-3.744,107.875,107.875,0,0,1-17.219-4.888,53.343,53.343,0,0,1-13.178-7.082,52.553,52.553,0,0,1-13.732-15.685,57.918,57.918,0,0,1-6.167-16.078,59.652,59.652,0,0,1-1.4-17.587l57.926,6.9a16.618,16.618,0,0,0,.946,4.987,18.93,18.93,0,0,0,2.34,4.654,19.455,19.455,0,0,0,4.614,4.689,24.834,24.834,0,0,0,9.27,3.724,67.368,67.368,0,0,0,14.1,1.3c1.282,0,2.617-.025,3.968-.076a54.535,54.535,0,0,0,19.046-3.775,30.715,30.715,0,0,0,10.6-7.143,23.7,23.7,0,0,0,4.577-6.92,14.834,14.834,0,0,0,.986-3.1c.013-.056,1.309-5.74,1.74-18.118.429-12.317,0-31.69,0-31.884l-.007.013a82.444,82.444,0,0,1-11.685,13.071,77,77,0,0,1-13.646,10.03,57.393,57.393,0,0,1-17.986,6.734,78.353,78.353,0,0,1-14.18,1.289h-.007a78.566,78.566,0,0,1-13.733-1.207,75.253,75.253,0,0,1-13.717-3.8,71.321,71.321,0,0,1-25.241-16.447A84.213,84.213,0,0,1,8.1,145.593a119.1,119.1,0,0,1-5.632-20.758A162.751,162.751,0,0,1,.048,99.888c-.4-17.2,1.764-32.689,6.441-46.036A82.726,82.726,0,0,1,25.183,23.046,74.881,74.881,0,0,1,52,5.445,80.919,80.919,0,0,1,66.746,1.322,83.636,83.636,0,0,1,81.546,0,81.765,81.765,0,0,1,93.427.863a58.9,58.9,0,0,1,19.358,6.595,79.219,79.219,0,0,1,14.749,10.407,85.249,85.249,0,0,1,12.693,13.846V5.119h47.358l.7,175.686a152.277,152.277,0,0,1-1.407,23.742,138.224,138.224,0,0,1-4.763,22.177,89.636,89.636,0,0,1-10.14,22.382,55.693,55.693,0,0,1-10.089,10.1,68.114,68.114,0,0,1-13.5,8.109c-10.608,4.852-23.005,7.609-36.847,8.194C107.731,275.675,103.882,275.756,100.1,275.756ZM94.978,39a39.221,39.221,0,0,0-17.6,4.391A40.515,40.515,0,0,0,62.934,55.552,44.759,44.759,0,0,0,58,64.364a60.777,60.777,0,0,0-3.229,10.115A102.422,102.422,0,0,0,52.478,97.5a105.3,105.3,0,0,0,2.728,24.527c1.977,8.093,4.921,14.711,8.751,19.669a35.393,35.393,0,0,0,14.182,10.922A42.8,42.8,0,0,0,94.978,156a38.113,38.113,0,0,0,19.233-5.413,43.107,43.107,0,0,0,15.077-15.015,54.935,54.935,0,0,0,6.407-17.582A106.768,106.768,0,0,0,137.478,97.5c0-16.3-2.63-28.991-7.817-37.709A43.719,43.719,0,0,0,114.317,44.4,38.348,38.348,0,0,0,94.978,39Z" transform="translate(7675.022 17128.5)" fill="#003b6b" stroke="#003b6b" stroke-width="1" opacity="0.657"/>
    <path id="Path_222" data-name="Path 222" d="M7597.917,15394.764l47.806-9.089s-3.422-27.558-35.422-42.316c-11.623-5.361-27.446-7.824-48.357-8.169-77.164-1.271-81.483,47.061-81.483,47.061s-3.829,21.986,4.65,37.278,29.265,23.888,29.265,23.888,13.343,5.206,30.164,9.862,37.12,8.764,37.12,8.764,20.942,2.605,19.448,17.3-18.3,18.291-18.3,18.291-25.071,4.9-40.027-2.1-19.8-25.895-19.8-25.895l-50.95,7.641s3.45,18.225,20.266,34.64c14.6,14.258,40.216,27.077,78.732,24.393,81.6-5.687,80.555-59.032,80.555-59.032s3.982-26.34-14.75-43.036-60.178-23.751-60.178-23.751-47.966-9.19-48.96-18.9a11.445,11.445,0,0,1,3.437-13.614c6.313-4.894,17.98-6.2,17.98-6.2s20.49-2.589,32.692,3.155S7597.917,15394.764,7597.917,15394.764Z" transform="translate(0 1795)" fill="#003b6b" stroke="#707070" stroke-width="1" opacity="0.742"/>
    <path id="Exclusion_43" data-name="Exclusion 43" d="M113.738,268.042h0c-1.066,0-1.659-.028-1.683-.029L0,267.186.16.085H112.054c.012,0,1.25-.085,3.377-.085a114.968,114.968,0,0,1,28.19,3.725,98.192,98.192,0,0,1,39.765,20.313c11.8,10.135,21.683,24.409,28.567,41.279,7.667,18.787,11.637,40.365,11.8,64.135a209.554,209.554,0,0,1-2.946,37.028,170.351,170.351,0,0,1-8.546,31.607c-7.062,18.514-17.046,33.729-28.874,44a105.189,105.189,0,0,1-42.444,22.15A109.787,109.787,0,0,1,113.738,268.042Zm-59.92-223.5h0V221.971h51.855a79.131,79.131,0,0,0,18.818-2.6c12.321-3.238,21.657-8.929,27.747-16.916,11.18-12.6,16.594-34.57,16.552-67.157-.039-29.757-4.338-50.235-13.531-64.444a55.785,55.785,0,0,0-28.107-22.5,61.23,61.23,0,0,0-20.479-3.831c-.759,0-1.187.024-1.191.024H53.818Z" transform="translate(7117.799 17059.301)" fill="#003b6b" stroke="#003b6b" stroke-width="1"/>
    <path id="Exclusion_44" data-name="Exclusion 44" d="M95.963,202.38h0a98.274,98.274,0,0,1-21.534-2.494c-16.741-3.774-31.047-10.582-42.519-20.234A85.906,85.906,0,0,1,9.925,151.269a94.174,94.174,0,0,1-9.454-36.21A139.264,139.264,0,0,1,.545,90.873C1.632,78.009,4.929,59.19,14.468,42.6A83.972,83.972,0,0,1,26.89,26.147,87.9,87.9,0,0,1,43.639,12.592,82.061,82.061,0,0,1,87.015,0c1.122,0,2.261.024,3.386.071a110.072,110.072,0,0,1,38.736,8.5c11.624,5.031,21.066,12.033,27.305,20.249A98.716,98.716,0,0,1,171.9,56.86a141.741,141.741,0,0,1,6.957,28.025,155.3,155.3,0,0,1,1.607,30.174H52.5a72.9,72.9,0,0,0,4.475,21.953,45.137,45.137,0,0,0,9.96,16.086,32.86,32.86,0,0,0,18.989,9.4,44.686,44.686,0,0,0,6.353.471,34.113,34.113,0,0,0,17.1-4.361,36.726,36.726,0,0,0,10.847-9.595,46.058,46.058,0,0,0,7.349-13.956L178.067,145.2l-.008.028A111.714,111.714,0,0,1,158.7,173.789a93.447,93.447,0,0,1-25.512,19.657A80.493,80.493,0,0,1,95.963,202.38ZM92.063,37.7c-.309,0-.618,0-.931.01-8.377.185-15.592,2.739-21.447,7.591A41.583,41.583,0,0,0,58.308,61.215a71.089,71.089,0,0,0-5.281,22.892h77.815a75.167,75.167,0,0,0-5.949-23.2,43.03,43.03,0,0,0-11.65-15.951A32.525,32.525,0,0,0,92.063,37.7Z" transform="translate(7320.265 17128.902)" fill="#003b6b" stroke="#003b6b" stroke-width="1" opacity="0.87"/>
    <path id="Path_230" data-name="Path 230" d="M7092.92,17056.148h61.965l54.242,86.369,52.239-86.369h61.188l-81.773,128.619,90.258,136.977H7266.9l-59.068-92.082-59.417,92.082h-63.852l90.853-138.432Z" transform="translate(-224 3)" fill="#003b6b" stroke="#003b6b" stroke-width="1" opacity="0.53"/>
    <path id="Path_231" data-name="Path 231" d="M6366.361,17055.066l1.156,165.236s-3.6,47.605,23.708,79.061c15.787,18.186,43.088,27.672,86.422,27.039,37.844-.553,60.793-8.809,75.8-24.412,30.939-32.178,25.684-84.758,25.684-84.758l-1.23-162.166h-52.026v172.066s5.827,50.563-48.224,54.125c-26.917,1.773-42.877-10.777-50.339-24.9-7.307-13.824-6.008-29.227-6.008-29.227v-172.066Z" transform="translate(342 2)" fill="#003b6b" stroke="#003b6b" stroke-width="1" opacity="0.714"/>
    <path id="Path_232" data-name="Path 232" d="M6788.894,17052l-77.384,292.336H6755.6L6832.795,17052Z" transform="translate(-103 -8.781)" fill="#003b6b" stroke="#003b6b" stroke-width="1"/>
    <path id="Path_233" data-name="Path 233" d="M6634.318,17055.066v267.547h54.449v-267.547Z" transform="translate(-63)" fill="#003b6b" stroke="#003b6b" stroke-width="1" opacity="0.887"/>
    <path id="Path_234" data-name="Path 234" d="M6366.361,17055.066l1.156,165.236s-3.6,47.605,23.708,79.061c15.787,18.186,43.088,27.672,86.422,27.039,37.844-.553,60.793-8.809,75.8-24.412,30.939-32.178,25.684-84.758,25.684-84.758l-1.23-162.166h-52.026v172.066s5.827,50.563-48.224,54.125c-26.917,1.773-42.877-10.777-50.339-24.9-7.307-13.824-6.008-29.227-6.008-29.227v-172.066Z" fill="#003b6b" stroke="#003b6b" stroke-width="1"/>
    <path id="Path_235" data-name="Path 235" d="M6836.764,14776.727v48.287h51.809v-48.287Z" transform="translate(798.511 2283.056)" fill="#003b6b" stroke="#003b6b" stroke-width="1" opacity="0.66"/>
  </g>
</svg>
