<svg xmlns="http://www.w3.org/2000/svg" width="1559.831" height="346.061" viewBox="0 0 1559.831 346.061">
  <g id="webdesign" transform="translate(-6106.615 -15264.697)">
    <path id="Exclusion_26" data-name="Exclusion 26" d="M51.012,0H0V267.412H48.453V240.905a.232.232,0,0,0,.035.045,108.507,108.507,0,0,0,15.066,14.09,92.35,92.35,0,0,0,16.519,10.323,61.349,61.349,0,0,0,20.4,5.957c2.486.244,5.02.368,7.533.368a77.1,77.1,0,0,0,29.022-5.619,75.735,75.735,0,0,0,26.326-17.826,89.034,89.034,0,0,0,19.224-31.488c4.963-13.558,7.559-29.238,7.715-46.6.158-17.477-2.227-33.15-7.089-46.583a83.778,83.778,0,0,0-19.065-30.826,76.054,76.054,0,0,0-27.481-17.706A85.7,85.7,0,0,0,106.8,69.682a84.035,84.035,0,0,0-12.957,1c-13.854,2.165-24.763,9.578-31.475,15.416A72.831,72.831,0,0,0,51.012,98.366V0Zm44.1,232.583c-14.021,0-27.771-8.885-35.031-22.635-5.2-9.814-7.721-22.222-7.721-37.933,0-17.723,3.926-33.358,10.771-42.9A43.485,43.485,0,0,1,77.9,115.892a36.508,36.508,0,0,1,17.216-4.444c12.962,0,23.862,5.674,30.693,15.978,7.551,11.364,12.06,28.033,12.06,44.589C137.867,205.412,118.688,232.583,95.114,232.583Z" transform="translate(6571.48 15265.197)" fill="#003b6b" stroke="#003b6b" stroke-width="1" opacity="0.782"/>
    <path id="Path_172" data-name="Path 172" d="M6836.764,14776.727V14970.6h51.809v-193.869Z" transform="translate(444.511 563.056)" fill="#003b6b" stroke="#003b6b" stroke-width="1" opacity="0.66"/>
    <path id="Path_173" data-name="Path 173" d="M6836.764,14776.727v48.287h51.809v-48.287Z" transform="translate(444.511 491.056)" fill="#003b6b" stroke="#003b6b" stroke-width="1" opacity="0.66"/>
    <path id="Path_174" data-name="Path 174" d="M7145.827,14800.536l.24,193.359h52.364v-105.461s-2.5-45.225,34.022-52.217,39.244,33.754,39.244,33.754V14993.9h51.633v-138.018s-3.526-47.781-49.121-58-80.979,32.25-80.979,32.25v-29.6Z" transform="translate(342.615 538.087)" fill="#003b6b" stroke="#003b6b" stroke-width="1" opacity="0.429"/>
    <path id="Exclusion_29" data-name="Exclusion 29" d="M100.1,275.756a212.224,212.224,0,0,1-41.431-3.744,107.875,107.875,0,0,1-17.219-4.888,53.343,53.343,0,0,1-13.178-7.082,52.553,52.553,0,0,1-13.732-15.685,57.918,57.918,0,0,1-6.167-16.078,59.652,59.652,0,0,1-1.4-17.587l57.926,6.9a16.618,16.618,0,0,0,.946,4.987,18.93,18.93,0,0,0,2.34,4.654,19.455,19.455,0,0,0,4.614,4.689,24.834,24.834,0,0,0,9.27,3.724,67.368,67.368,0,0,0,14.1,1.3c1.282,0,2.617-.025,3.968-.076a54.535,54.535,0,0,0,19.046-3.775,30.715,30.715,0,0,0,10.6-7.143,23.7,23.7,0,0,0,4.577-6.92,14.834,14.834,0,0,0,.986-3.1c.013-.056,1.309-5.74,1.74-18.118.429-12.317,0-31.69,0-31.884l-.007.013a82.444,82.444,0,0,1-11.685,13.071,77,77,0,0,1-13.646,10.03,57.393,57.393,0,0,1-17.986,6.734,78.353,78.353,0,0,1-14.18,1.289h-.007a78.566,78.566,0,0,1-13.733-1.207,75.253,75.253,0,0,1-13.717-3.8,71.321,71.321,0,0,1-25.241-16.447A84.213,84.213,0,0,1,8.1,145.593a119.1,119.1,0,0,1-5.632-20.758A162.751,162.751,0,0,1,.048,99.888c-.4-17.2,1.764-32.689,6.441-46.036A82.726,82.726,0,0,1,25.183,23.046,74.881,74.881,0,0,1,52,5.445,80.919,80.919,0,0,1,66.746,1.322,83.636,83.636,0,0,1,81.546,0,81.765,81.765,0,0,1,93.427.863a58.9,58.9,0,0,1,19.358,6.595,79.219,79.219,0,0,1,14.749,10.407,85.249,85.249,0,0,1,12.693,13.846V5.119h47.358l.7,175.686a152.277,152.277,0,0,1-1.407,23.742,138.224,138.224,0,0,1-4.763,22.177,89.636,89.636,0,0,1-10.14,22.382,55.693,55.693,0,0,1-10.089,10.1,68.114,68.114,0,0,1-13.5,8.109c-10.608,4.852-23.005,7.609-36.847,8.194C107.731,275.675,103.882,275.756,100.1,275.756ZM94.978,39a39.221,39.221,0,0,0-17.6,4.391A40.515,40.515,0,0,0,62.934,55.552,44.759,44.759,0,0,0,58,64.364a60.777,60.777,0,0,0-3.229,10.115A102.422,102.422,0,0,0,52.478,97.5a105.3,105.3,0,0,0,2.728,24.527c1.977,8.093,4.921,14.711,8.751,19.669a35.393,35.393,0,0,0,14.182,10.922A42.8,42.8,0,0,0,94.978,156a38.113,38.113,0,0,0,19.233-5.413,43.107,43.107,0,0,0,15.077-15.015,54.935,54.935,0,0,0,6.407-17.582A106.768,106.768,0,0,0,137.478,97.5c0-16.3-2.63-28.991-7.817-37.709A43.719,43.719,0,0,0,114.317,44.4,38.348,38.348,0,0,0,94.978,39Z" transform="translate(7321.022 15334.501)" fill="#003b6b" stroke="#003b6b" stroke-width="1" opacity="0.657"/>
    <path id="Path_178" data-name="Path 178" d="M6107.249,15265.709l63.605,266.055h58.281l53.135-199.87,52.65,199.87h57.161l64.567-266.055H6403.06l-41.262,186.964-46.74-186.964h-63.8l-48.484,183.133-40.822-183.133Z" fill="#003b6b" stroke="#003b6b" stroke-width="1"/>
    <path id="Exclusion_30" data-name="Exclusion 30" d="M95.963,202.38h0a98.274,98.274,0,0,1-21.534-2.494c-16.741-3.774-31.047-10.582-42.519-20.234A85.906,85.906,0,0,1,9.925,151.269a94.174,94.174,0,0,1-9.454-36.21A139.264,139.264,0,0,1,.545,90.873C1.632,78.009,4.929,59.19,14.468,42.6A83.972,83.972,0,0,1,26.89,26.147,87.9,87.9,0,0,1,43.639,12.592,82.061,82.061,0,0,1,87.015,0c1.122,0,2.261.024,3.386.071a110.072,110.072,0,0,1,38.736,8.5c11.624,5.031,21.066,12.033,27.305,20.249A98.716,98.716,0,0,1,171.9,56.86a141.741,141.741,0,0,1,6.957,28.025,155.3,155.3,0,0,1,1.607,30.174H52.5a72.9,72.9,0,0,0,4.475,21.953,45.137,45.137,0,0,0,9.96,16.086,32.86,32.86,0,0,0,18.989,9.4,44.686,44.686,0,0,0,6.353.471,34.113,34.113,0,0,0,17.1-4.361,36.726,36.726,0,0,0,10.847-9.595,46.058,46.058,0,0,0,7.349-13.956L178.067,145.2l-.008.028A111.714,111.714,0,0,1,158.7,173.789a93.447,93.447,0,0,1-25.512,19.657A80.493,80.493,0,0,1,95.963,202.38ZM92.063,37.7c-.309,0-.618,0-.931.01-8.377.185-15.592,2.739-21.447,7.591A41.583,41.583,0,0,0,58.308,61.215a71.089,71.089,0,0,0-5.281,22.892h77.815a75.167,75.167,0,0,0-5.949-23.2,43.03,43.03,0,0,0-11.65-15.951A32.525,32.525,0,0,0,92.063,37.7Z" transform="translate(6406.265 15334.901)" fill="#003b6b" stroke="#003b6b" stroke-width="1" opacity="0.87"/>
    <path id="Path_181" data-name="Path 181" d="M7597.917,15394.764l47.806-9.089s-3.422-27.558-35.422-42.316c-11.623-5.361-27.446-7.824-48.357-8.169-77.164-1.271-81.483,47.061-81.483,47.061s-3.829,21.986,4.65,37.278,29.265,23.888,29.265,23.888,13.343,5.206,30.164,9.862,37.12,8.764,37.12,8.764,20.942,2.605,19.448,17.3-18.3,18.291-18.3,18.291-25.071,4.9-40.027-2.1-19.8-25.895-19.8-25.895l-50.95,7.641s3.45,18.225,20.266,34.64c14.6,14.258,40.216,27.077,78.732,24.393,81.6-5.687,80.555-59.032,80.555-59.032s3.982-26.34-14.75-43.036-60.178-23.751-60.178-23.751-47.966-9.19-48.96-18.9a11.445,11.445,0,0,1,3.437-13.614c6.313-4.894,17.98-6.2,17.98-6.2s20.49-2.589,32.692,3.155S7597.917,15394.764,7597.917,15394.764Z" transform="translate(-354 1)" fill="#003b6b" stroke="#707070" stroke-width="1" opacity="0.742"/>
    <path id="Exclusion_31" data-name="Exclusion 31" d="M113.738,268.042h0c-1.066,0-1.659-.028-1.683-.029L0,267.186.16.085H112.054c.012,0,1.25-.085,3.377-.085a114.968,114.968,0,0,1,28.19,3.725,98.192,98.192,0,0,1,39.765,20.313c11.8,10.135,21.683,24.409,28.567,41.279,7.667,18.787,11.637,40.365,11.8,64.135a209.554,209.554,0,0,1-2.946,37.028,170.351,170.351,0,0,1-8.546,31.607c-7.062,18.514-17.046,33.729-28.874,44a105.189,105.189,0,0,1-42.444,22.15A109.787,109.787,0,0,1,113.738,268.042Zm-59.92-223.5h0V221.971h51.855a79.131,79.131,0,0,0,18.818-2.6c12.321-3.238,21.657-8.929,27.747-16.916,11.18-12.6,16.594-34.57,16.552-67.157-.039-29.757-4.338-50.235-13.531-64.444a55.785,55.785,0,0,0-28.107-22.5,61.23,61.23,0,0,0-20.479-3.831c-.759,0-1.187.024-1.191.024H53.818Z" transform="translate(6763.799 15265.3)" fill="#003b6b" stroke="#003b6b" stroke-width="1"/>
    <path id="Exclusion_32" data-name="Exclusion 32" d="M95.963,202.38h0a98.274,98.274,0,0,1-21.534-2.494c-16.741-3.774-31.047-10.582-42.519-20.234A85.906,85.906,0,0,1,9.925,151.269a94.174,94.174,0,0,1-9.454-36.21A139.264,139.264,0,0,1,.545,90.873C1.632,78.009,4.929,59.19,14.468,42.6A83.972,83.972,0,0,1,26.89,26.147,87.9,87.9,0,0,1,43.639,12.592,82.061,82.061,0,0,1,87.015,0c1.122,0,2.261.024,3.386.071a110.072,110.072,0,0,1,38.736,8.5c11.624,5.031,21.066,12.033,27.305,20.249A98.716,98.716,0,0,1,171.9,56.86a141.741,141.741,0,0,1,6.957,28.025,155.3,155.3,0,0,1,1.607,30.174H52.5a72.9,72.9,0,0,0,4.475,21.953,45.137,45.137,0,0,0,9.96,16.086,32.86,32.86,0,0,0,18.989,9.4,44.686,44.686,0,0,0,6.353.471,34.113,34.113,0,0,0,17.1-4.361,36.726,36.726,0,0,0,10.847-9.595,46.058,46.058,0,0,0,7.349-13.956L178.067,145.2l-.008.028A111.714,111.714,0,0,1,158.7,173.789a93.447,93.447,0,0,1-25.512,19.657A80.493,80.493,0,0,1,95.963,202.38ZM92.063,37.7c-.309,0-.618,0-.931.01-8.377.185-15.592,2.739-21.447,7.591A41.583,41.583,0,0,0,58.308,61.215a71.089,71.089,0,0,0-5.281,22.892h77.815a75.167,75.167,0,0,0-5.949-23.2,43.03,43.03,0,0,0-11.65-15.951A32.525,32.525,0,0,0,92.063,37.7Z" transform="translate(6966.265 15334.901)" fill="#003b6b" stroke="#003b6b" stroke-width="1" opacity="0.87"/>
  </g>
</svg>
